<?xml version="1.0" encoding="utf-8" standalone="no"?>
<!DOCTYPE svg PUBLIC "-//W3C//DTD SVG 1.1//EN"
  "http://www.w3.org/Graphics/SVG/1.1/DTD/svg11.dtd">
<!-- Created with matplotlib (https://matplotlib.org/) -->
<svg height="360pt" version="1.1" viewBox="0 0 576 360" width="576pt" xmlns="http://www.w3.org/2000/svg" xmlns:xlink="http://www.w3.org/1999/xlink">
 <metadata>
  <rdf:RDF xmlns:cc="http://creativecommons.org/ns#" xmlns:dc="http://purl.org/dc/elements/1.1/" xmlns:rdf="http://www.w3.org/1999/02/22-rdf-syntax-ns#">
   <cc:Work>
    <dc:type rdf:resource="http://purl.org/dc/dcmitype/StillImage"/>
    <dc:date>2025-04-28T21:55:42.656337</dc:date>
    <dc:format>image/svg+xml</dc:format>
    <dc:creator>
     <cc:Agent>
      <dc:title>Matplotlib v3.3.4, https://matplotlib.org/</dc:title>
     </cc:Agent>
    </dc:creator>
   </cc:Work>
  </rdf:RDF>
 </metadata>
 <defs>
  <style type="text/css">*{stroke-linecap:butt;stroke-linejoin:round;}</style>
 </defs>
 <g id="figure_1">
  <g id="patch_1">
   <path d="M 0 360 
L 576 360 
L 576 0 
L 0 0 
z
" style="fill:#ffffff;"/>
  </g>
  <g id="axes_1">
   <g id="patch_2">
    <path d="M 71.93 302.92 
L 410.039434 302.92 
L 410.039434 10.8 
L 71.93 10.8 
z
" style="fill:#ffffff;"/>
   </g>
   <g id="matplotlib.axis_1">
    <g id="xtick_1">
     <g id="line2d_1">
      <defs>
       <path d="M 0 0 
L 0 3.5 
" id="m55b2fb4795" style="stroke:#000000;stroke-width:0.8;"/>
      </defs>
      <g>
       <use style="stroke:#000000;stroke-width:0.8;" x="87.298611" xlink:href="#m55b2fb4795" y="302.92"/>
      </g>
     </g>
     <g id="text_1">
      <!-- −1.5 -->
      <g transform="translate(67.872361 322.0775)scale(0.16 -0.16)">
       <defs>
        <path d="M 10.59375 35.296875 
L 73.1875 35.296875 
L 73.1875 27.390625 
L 10.59375 27.390625 
z
" id="DejaVuSerif-8722"/>
        <path d="M 14.203125 0 
L 14.203125 5.171875 
L 26.90625 5.171875 
L 26.90625 65.828125 
L 12.203125 56.296875 
L 12.203125 62.703125 
L 29.984375 74.21875 
L 36.71875 74.21875 
L 36.71875 5.171875 
L 49.421875 5.171875 
L 49.421875 0 
z
" id="DejaVuSerif-49"/>
        <path d="M 9.421875 5.078125 
Q 9.421875 7.8125 11.28125 9.71875 
Q 13.140625 11.625 15.921875 11.625 
Q 18.609375 11.625 20.5 9.71875 
Q 22.40625 7.8125 22.40625 5.078125 
Q 22.40625 2.390625 20.5 0.484375 
Q 18.609375 -1.421875 15.921875 -1.421875 
Q 13.140625 -1.421875 11.28125 0.453125 
Q 9.421875 2.34375 9.421875 5.078125 
z
" id="DejaVuSerif-46"/>
        <path d="M 50.296875 72.90625 
L 50.296875 64.890625 
L 16.890625 64.890625 
L 16.890625 44 
Q 19.4375 45.75 22.828125 46.625 
Q 26.21875 47.515625 30.421875 47.515625 
Q 42.234375 47.515625 49.0625 40.96875 
Q 55.90625 34.421875 55.90625 23.09375 
Q 55.90625 11.53125 49 5.046875 
Q 42.09375 -1.421875 29.59375 -1.421875 
Q 24.5625 -1.421875 19.28125 -0.1875 
Q 14.015625 1.03125 8.5 3.515625 
L 8.5 17.671875 
L 14.015625 17.671875 
Q 14.453125 10.75 18.421875 7.078125 
Q 22.40625 3.421875 29.59375 3.421875 
Q 37.3125 3.421875 41.453125 8.5 
Q 45.609375 13.578125 45.609375 23.09375 
Q 45.609375 32.5625 41.484375 37.609375 
Q 37.359375 42.671875 29.59375 42.671875 
Q 25.203125 42.671875 21.84375 41.109375 
Q 18.5 39.546875 15.921875 36.28125 
L 11.71875 36.28125 
L 11.71875 72.90625 
z
" id="DejaVuSerif-53"/>
       </defs>
       <use xlink:href="#DejaVuSerif-8722"/>
       <use x="83.789062" xlink:href="#DejaVuSerif-49"/>
       <use x="147.412109" xlink:href="#DejaVuSerif-46"/>
       <use x="179.199219" xlink:href="#DejaVuSerif-53"/>
      </g>
     </g>
    </g>
    <g id="xtick_2">
     <g id="line2d_2">
      <g>
       <use style="stroke:#000000;stroke-width:0.8;" x="138.527313" xlink:href="#m55b2fb4795" y="302.92"/>
      </g>
     </g>
     <g id="text_2">
      <!-- −1.0 -->
      <g transform="translate(119.101063 322.0775)scale(0.16 -0.16)">
       <defs>
        <path d="M 31.78125 3.421875 
Q 39.265625 3.421875 42.96875 11.625 
Q 46.6875 19.828125 46.6875 36.375 
Q 46.6875 52.984375 42.96875 61.1875 
Q 39.265625 69.390625 31.78125 69.390625 
Q 24.3125 69.390625 20.59375 61.1875 
Q 16.890625 52.984375 16.890625 36.375 
Q 16.890625 19.828125 20.59375 11.625 
Q 24.3125 3.421875 31.78125 3.421875 
z
M 31.78125 -1.421875 
Q 19.921875 -1.421875 13.25 8.53125 
Q 6.59375 18.5 6.59375 36.375 
Q 6.59375 54.296875 13.25 64.25 
Q 19.921875 74.21875 31.78125 74.21875 
Q 43.703125 74.21875 50.34375 64.25 
Q 56.984375 54.296875 56.984375 36.375 
Q 56.984375 18.5 50.34375 8.53125 
Q 43.703125 -1.421875 31.78125 -1.421875 
z
" id="DejaVuSerif-48"/>
       </defs>
       <use xlink:href="#DejaVuSerif-8722"/>
       <use x="83.789062" xlink:href="#DejaVuSerif-49"/>
       <use x="147.412109" xlink:href="#DejaVuSerif-46"/>
       <use x="179.199219" xlink:href="#DejaVuSerif-48"/>
      </g>
     </g>
    </g>
    <g id="xtick_3">
     <g id="line2d_3">
      <g>
       <use style="stroke:#000000;stroke-width:0.8;" x="189.756015" xlink:href="#m55b2fb4795" y="302.92"/>
      </g>
     </g>
     <g id="text_3">
      <!-- −0.5 -->
      <g transform="translate(170.329765 322.0775)scale(0.16 -0.16)">
       <use xlink:href="#DejaVuSerif-8722"/>
       <use x="83.789062" xlink:href="#DejaVuSerif-48"/>
       <use x="147.412109" xlink:href="#DejaVuSerif-46"/>
       <use x="179.199219" xlink:href="#DejaVuSerif-53"/>
      </g>
     </g>
    </g>
    <g id="xtick_4">
     <g id="line2d_4">
      <g>
       <use style="stroke:#000000;stroke-width:0.8;" x="240.984717" xlink:href="#m55b2fb4795" y="302.92"/>
      </g>
     </g>
     <g id="text_4">
      <!-- 0.0 -->
      <g transform="translate(228.262217 322.0775)scale(0.16 -0.16)">
       <use xlink:href="#DejaVuSerif-48"/>
       <use x="63.623047" xlink:href="#DejaVuSerif-46"/>
       <use x="95.410156" xlink:href="#DejaVuSerif-48"/>
      </g>
     </g>
    </g>
    <g id="xtick_5">
     <g id="line2d_5">
      <g>
       <use style="stroke:#000000;stroke-width:0.8;" x="292.213419" xlink:href="#m55b2fb4795" y="302.92"/>
      </g>
     </g>
     <g id="text_5">
      <!-- 0.5 -->
      <g transform="translate(279.490919 322.0775)scale(0.16 -0.16)">
       <use xlink:href="#DejaVuSerif-48"/>
       <use x="63.623047" xlink:href="#DejaVuSerif-46"/>
       <use x="95.410156" xlink:href="#DejaVuSerif-53"/>
      </g>
     </g>
    </g>
    <g id="xtick_6">
     <g id="line2d_6">
      <g>
       <use style="stroke:#000000;stroke-width:0.8;" x="343.442121" xlink:href="#m55b2fb4795" y="302.92"/>
      </g>
     </g>
     <g id="text_6">
      <!-- 1.0 -->
      <g transform="translate(330.719621 322.0775)scale(0.16 -0.16)">
       <use xlink:href="#DejaVuSerif-49"/>
       <use x="63.623047" xlink:href="#DejaVuSerif-46"/>
       <use x="95.410156" xlink:href="#DejaVuSerif-48"/>
      </g>
     </g>
    </g>
    <g id="xtick_7">
     <g id="line2d_7">
      <g>
       <use style="stroke:#000000;stroke-width:0.8;" x="394.670823" xlink:href="#m55b2fb4795" y="302.92"/>
      </g>
     </g>
     <g id="text_7">
      <!-- 1.5 -->
      <g transform="translate(381.948323 322.0775)scale(0.16 -0.16)">
       <use xlink:href="#DejaVuSerif-49"/>
       <use x="63.623047" xlink:href="#DejaVuSerif-46"/>
       <use x="95.410156" xlink:href="#DejaVuSerif-53"/>
      </g>
     </g>
    </g>
    <g id="text_8">
     <!-- Distortion Amplitude -->
     <g transform="translate(134.680029 344.601875)scale(0.2 -0.2)">
      <defs>
       <path d="M 24.703125 5.171875 
L 33.796875 5.171875 
Q 48 5.171875 55.59375 13.28125 
Q 63.1875 21.390625 63.1875 36.53125 
Q 63.1875 51.65625 55.609375 59.65625 
Q 48.046875 67.671875 33.796875 67.671875 
L 24.703125 67.671875 
z
M 5.515625 0 
L 5.515625 5.171875 
L 14.796875 5.171875 
L 14.796875 67.671875 
L 5.515625 67.671875 
L 5.515625 72.90625 
L 34.515625 72.90625 
Q 53.375 72.90625 63.890625 63.28125 
Q 74.421875 53.65625 74.421875 36.53125 
Q 74.421875 19.34375 63.875 9.671875 
Q 53.328125 0 34.515625 0 
z
" id="DejaVuSerif-68"/>
       <path d="M 9.71875 68.015625 
Q 9.71875 70.265625 11.34375 71.921875 
Q 12.984375 73.578125 15.28125 73.578125 
Q 17.53125 73.578125 19.15625 71.921875 
Q 20.796875 70.265625 20.796875 68.015625 
Q 20.796875 65.71875 19.1875 64.109375 
Q 17.578125 62.5 15.28125 62.5 
Q 12.984375 62.5 11.34375 64.109375 
Q 9.71875 65.71875 9.71875 68.015625 
z
M 21.1875 5.171875 
L 29.6875 5.171875 
L 29.6875 0 
L 3.609375 0 
L 3.609375 5.171875 
L 12.203125 5.171875 
L 12.203125 46.6875 
L 3.609375 46.6875 
L 3.609375 51.90625 
L 21.1875 51.90625 
z
" id="DejaVuSerif-105"/>
       <path d="M 5.609375 2.875 
L 5.609375 14.984375 
L 10.796875 14.984375 
Q 10.984375 9.1875 14.421875 6.296875 
Q 17.875 3.421875 24.609375 3.421875 
Q 30.671875 3.421875 33.84375 5.6875 
Q 37.015625 7.953125 37.015625 12.3125 
Q 37.015625 15.71875 34.6875 17.8125 
Q 32.375 19.921875 24.90625 22.3125 
L 18.40625 24.515625 
Q 11.71875 26.65625 8.71875 29.875 
Q 5.71875 33.109375 5.71875 38.09375 
Q 5.71875 45.21875 10.9375 49.265625 
Q 16.15625 53.328125 25.390625 53.328125 
Q 29.5 53.328125 34.03125 52.25 
Q 38.578125 51.171875 43.40625 49.125 
L 43.40625 37.796875 
L 38.234375 37.796875 
Q 38.03125 42.828125 34.703125 45.65625 
Q 31.390625 48.484375 25.6875 48.484375 
Q 20.015625 48.484375 17.109375 46.484375 
Q 14.203125 44.484375 14.203125 40.484375 
Q 14.203125 37.203125 16.40625 35.21875 
Q 18.609375 33.25 25.203125 31.203125 
L 32.328125 29 
Q 39.703125 26.703125 42.9375 23.265625 
Q 46.1875 19.828125 46.1875 14.40625 
Q 46.1875 7.03125 40.546875 2.796875 
Q 34.90625 -1.421875 25 -1.421875 
Q 19.96875 -1.421875 15.1875 -0.34375 
Q 10.40625 0.734375 5.609375 2.875 
z
" id="DejaVuSerif-115"/>
       <path d="M 10.796875 46.6875 
L 2.875 46.6875 
L 2.875 51.90625 
L 10.796875 51.90625 
L 10.796875 68.015625 
L 19.828125 68.015625 
L 19.828125 51.90625 
L 36.71875 51.90625 
L 36.71875 46.6875 
L 19.828125 46.6875 
L 19.828125 13.71875 
Q 19.828125 7.125 21.09375 5.265625 
Q 22.359375 3.421875 25.78125 3.421875 
Q 29.296875 3.421875 30.90625 5.484375 
Q 32.515625 7.5625 32.625 12.203125 
L 39.40625 12.203125 
Q 39.015625 5.125 35.546875 1.84375 
Q 32.078125 -1.421875 25 -1.421875 
Q 17.234375 -1.421875 14.015625 2.015625 
Q 10.796875 5.46875 10.796875 13.71875 
z
" id="DejaVuSerif-116"/>
       <path d="M 30.078125 3.421875 
Q 37.3125 3.421875 40.984375 9.125 
Q 44.671875 14.84375 44.671875 25.984375 
Q 44.671875 37.109375 40.984375 42.796875 
Q 37.3125 48.484375 30.078125 48.484375 
Q 22.859375 48.484375 19.171875 42.796875 
Q 15.484375 37.109375 15.484375 25.984375 
Q 15.484375 14.84375 19.1875 9.125 
Q 22.90625 3.421875 30.078125 3.421875 
z
M 30.078125 -1.421875 
Q 18.75 -1.421875 11.859375 6.078125 
Q 4.984375 13.578125 4.984375 25.984375 
Q 4.984375 38.375 11.84375 45.84375 
Q 18.703125 53.328125 30.078125 53.328125 
Q 41.453125 53.328125 48.3125 45.84375 
Q 55.171875 38.375 55.171875 25.984375 
Q 55.171875 13.578125 48.3125 6.078125 
Q 41.453125 -1.421875 30.078125 -1.421875 
z
" id="DejaVuSerif-111"/>
       <path d="M 47.796875 52 
L 47.796875 39.015625 
L 42.625 39.015625 
Q 42.390625 42.875 40.484375 44.78125 
Q 38.578125 46.6875 34.90625 46.6875 
Q 28.265625 46.6875 24.71875 42.09375 
Q 21.1875 37.5 21.1875 28.90625 
L 21.1875 5.171875 
L 31.59375 5.171875 
L 31.59375 0 
L 4.109375 0 
L 4.109375 5.171875 
L 12.203125 5.171875 
L 12.203125 46.78125 
L 3.609375 46.78125 
L 3.609375 51.90625 
L 21.1875 51.90625 
L 21.1875 42.671875 
Q 23.828125 48.09375 27.96875 50.703125 
Q 32.125 53.328125 38.09375 53.328125 
Q 40.28125 53.328125 42.703125 52.984375 
Q 45.125 52.640625 47.796875 52 
z
" id="DejaVuSerif-114"/>
       <path d="M 4.109375 0 
L 4.109375 5.171875 
L 12.203125 5.171875 
L 12.203125 46.6875 
L 3.609375 46.6875 
L 3.609375 51.90625 
L 21.1875 51.90625 
L 21.1875 42.671875 
Q 23.6875 47.953125 27.65625 50.640625 
Q 31.640625 53.328125 36.921875 53.328125 
Q 45.515625 53.328125 49.5625 48.390625 
Q 53.609375 43.453125 53.609375 33.015625 
L 53.609375 5.171875 
L 61.625 5.171875 
L 61.625 0 
L 36.8125 0 
L 36.8125 5.171875 
L 44.578125 5.171875 
L 44.578125 30.171875 
Q 44.578125 39.703125 42.234375 43.234375 
Q 39.890625 46.78125 33.984375 46.78125 
Q 27.734375 46.78125 24.453125 42.203125 
Q 21.1875 37.640625 21.1875 28.90625 
L 21.1875 5.171875 
L 29 5.171875 
L 29 0 
z
" id="DejaVuSerif-110"/>
       <path id="DejaVuSerif-32"/>
       <path d="M 20.015625 26.421875 
L 46.78125 26.421875 
L 33.40625 61.078125 
z
M -0.59375 0 
L -0.59375 5.171875 
L 5.8125 5.171875 
L 31.78125 72.90625 
L 39.984375 72.90625 
L 66.015625 5.171875 
L 73.1875 5.171875 
L 73.1875 0 
L 46.6875 0 
L 46.6875 5.171875 
L 54.78125 5.171875 
L 48.6875 21.1875 
L 18.015625 21.1875 
L 11.921875 5.171875 
L 19.921875 5.171875 
L 19.921875 0 
z
" id="DejaVuSerif-65"/>
       <path d="M 51.8125 41.796875 
Q 54.390625 47.515625 58.421875 50.421875 
Q 62.453125 53.328125 67.828125 53.328125 
Q 75.984375 53.328125 79.984375 48.265625 
Q 83.984375 43.21875 83.984375 33.015625 
L 83.984375 5.171875 
L 92.09375 5.171875 
L 92.09375 0 
L 67.1875 0 
L 67.1875 5.171875 
L 75 5.171875 
L 75 31.984375 
Q 75 39.9375 72.65625 43.3125 
Q 70.3125 46.6875 64.890625 46.6875 
Q 58.890625 46.6875 55.734375 42.140625 
Q 52.59375 37.59375 52.59375 28.90625 
L 52.59375 5.171875 
L 60.40625 5.171875 
L 60.40625 0 
L 35.796875 0 
L 35.796875 5.171875 
L 43.609375 5.171875 
L 43.609375 32.328125 
Q 43.609375 40.09375 41.265625 43.390625 
Q 38.921875 46.6875 33.5 46.6875 
Q 27.484375 46.6875 24.328125 42.140625 
Q 21.1875 37.59375 21.1875 28.90625 
L 21.1875 5.171875 
L 29 5.171875 
L 29 0 
L 4.109375 0 
L 4.109375 5.171875 
L 12.203125 5.171875 
L 12.203125 46.78125 
L 3.609375 46.78125 
L 3.609375 51.90625 
L 21.1875 51.90625 
L 21.1875 42.671875 
Q 23.6875 47.859375 27.53125 50.59375 
Q 31.390625 53.328125 36.28125 53.328125 
Q 42.328125 53.328125 46.375 50.3125 
Q 50.4375 47.3125 51.8125 41.796875 
z
" id="DejaVuSerif-109"/>
       <path d="M 20.515625 28.515625 
L 20.515625 23.390625 
Q 20.515625 14.015625 24.09375 9.109375 
Q 27.6875 4.203125 34.515625 4.203125 
Q 41.40625 4.203125 44.9375 9.71875 
Q 48.484375 15.234375 48.484375 25.984375 
Q 48.484375 36.765625 44.9375 42.234375 
Q 41.40625 47.703125 34.515625 47.703125 
Q 27.6875 47.703125 24.09375 42.765625 
Q 20.515625 37.84375 20.515625 28.515625 
z
M 11.53125 46.6875 
L 2.875 46.6875 
L 2.875 51.90625 
L 20.515625 51.90625 
L 20.515625 43.796875 
Q 23.140625 48.6875 27.21875 51 
Q 31.296875 53.328125 37.3125 53.328125 
Q 46.875 53.328125 52.921875 45.75 
Q 58.984375 38.1875 58.984375 25.984375 
Q 58.984375 13.765625 52.921875 6.171875 
Q 46.875 -1.421875 37.3125 -1.421875 
Q 31.296875 -1.421875 27.21875 0.890625 
Q 23.140625 3.21875 20.515625 8.109375 
L 20.515625 -15.578125 
L 29 -15.578125 
L 29 -20.796875 
L 2.875 -20.796875 
L 2.875 -15.578125 
L 11.53125 -15.578125 
z
" id="DejaVuSerif-112"/>
       <path d="M 20.515625 5.171875 
L 29 5.171875 
L 29 0 
L 2.875 0 
L 2.875 5.171875 
L 11.53125 5.171875 
L 11.53125 70.796875 
L 2.875 70.796875 
L 2.875 75.984375 
L 20.515625 75.984375 
z
" id="DejaVuSerif-108"/>
       <path d="M 35.40625 51.90625 
L 52.203125 51.90625 
L 52.203125 5.171875 
L 60.6875 5.171875 
L 60.6875 0 
L 43.21875 0 
L 43.21875 9.1875 
Q 40.71875 4 36.765625 1.28125 
Q 32.8125 -1.421875 27.59375 -1.421875 
Q 18.953125 -1.421875 14.875 3.484375 
Q 10.796875 8.40625 10.796875 18.890625 
L 10.796875 46.6875 
L 2.6875 46.6875 
L 2.6875 51.90625 
L 19.828125 51.90625 
L 19.828125 21.6875 
Q 19.828125 12.203125 22.140625 8.6875 
Q 24.46875 5.171875 30.421875 5.171875 
Q 36.671875 5.171875 39.9375 9.765625 
Q 43.21875 14.359375 43.21875 23.09375 
L 43.21875 46.6875 
L 35.40625 46.6875 
z
" id="DejaVuSerif-117"/>
       <path d="M 52.484375 5.171875 
L 61.078125 5.171875 
L 61.078125 0 
L 43.5 0 
L 43.5 8.109375 
Q 40.875 3.21875 36.796875 0.890625 
Q 32.71875 -1.421875 26.703125 -1.421875 
Q 17.140625 -1.421875 11.0625 6.171875 
Q 4.984375 13.765625 4.984375 25.984375 
Q 4.984375 38.1875 11.03125 45.75 
Q 17.09375 53.328125 26.703125 53.328125 
Q 32.71875 53.328125 36.796875 51 
Q 40.875 48.6875 43.5 43.796875 
L 43.5 70.796875 
L 35.015625 70.796875 
L 35.015625 75.984375 
L 52.484375 75.984375 
z
M 43.5 23.390625 
L 43.5 28.515625 
Q 43.5 37.84375 39.90625 42.765625 
Q 36.328125 47.703125 29.5 47.703125 
Q 22.5625 47.703125 19.015625 42.234375 
Q 15.484375 36.765625 15.484375 25.984375 
Q 15.484375 15.234375 19.015625 9.71875 
Q 22.5625 4.203125 29.5 4.203125 
Q 36.328125 4.203125 39.90625 9.109375 
Q 43.5 14.015625 43.5 23.390625 
z
" id="DejaVuSerif-100"/>
       <path d="M 54.203125 25 
L 15.484375 25 
L 15.484375 24.609375 
Q 15.484375 14.109375 19.4375 8.765625 
Q 23.390625 3.421875 31.109375 3.421875 
Q 37.015625 3.421875 40.796875 6.515625 
Q 44.578125 9.625 46.09375 15.71875 
L 53.328125 15.71875 
Q 51.171875 7.171875 45.375 2.875 
Q 39.59375 -1.421875 30.171875 -1.421875 
Q 18.796875 -1.421875 11.890625 6.078125 
Q 4.984375 13.578125 4.984375 25.984375 
Q 4.984375 38.28125 11.765625 45.796875 
Q 18.5625 53.328125 29.59375 53.328125 
Q 41.359375 53.328125 47.65625 46.0625 
Q 53.953125 38.8125 54.203125 25 
z
M 43.609375 30.171875 
Q 43.3125 39.265625 39.765625 43.875 
Q 36.234375 48.484375 29.59375 48.484375 
Q 23.390625 48.484375 19.828125 43.84375 
Q 16.265625 39.203125 15.484375 30.171875 
z
" id="DejaVuSerif-101"/>
      </defs>
      <use xlink:href="#DejaVuSerif-68"/>
      <use x="80.175781" xlink:href="#DejaVuSerif-105"/>
      <use x="112.158203" xlink:href="#DejaVuSerif-115"/>
      <use x="163.476562" xlink:href="#DejaVuSerif-116"/>
      <use x="203.662109" xlink:href="#DejaVuSerif-111"/>
      <use x="263.867188" xlink:href="#DejaVuSerif-114"/>
      <use x="311.669922" xlink:href="#DejaVuSerif-116"/>
      <use x="351.855469" xlink:href="#DejaVuSerif-105"/>
      <use x="383.837891" xlink:href="#DejaVuSerif-111"/>
      <use x="444.042969" xlink:href="#DejaVuSerif-110"/>
      <use x="508.447266" xlink:href="#DejaVuSerif-32"/>
      <use x="540.234375" xlink:href="#DejaVuSerif-65"/>
      <use x="612.451172" xlink:href="#DejaVuSerif-109"/>
      <use x="707.275391" xlink:href="#DejaVuSerif-112"/>
      <use x="771.289062" xlink:href="#DejaVuSerif-108"/>
      <use x="803.271484" xlink:href="#DejaVuSerif-105"/>
      <use x="835.253906" xlink:href="#DejaVuSerif-116"/>
      <use x="875.439453" xlink:href="#DejaVuSerif-117"/>
      <use x="939.84375" xlink:href="#DejaVuSerif-100"/>
      <use x="1003.857422" xlink:href="#DejaVuSerif-101"/>
     </g>
    </g>
   </g>
   <g id="matplotlib.axis_2">
    <g id="ytick_1">
     <g id="line2d_8">
      <defs>
       <path d="M 0 0 
L -3.5 0 
" id="mb7779495c1" style="stroke:#000000;stroke-width:0.8;"/>
      </defs>
      <g>
       <use style="stroke:#000000;stroke-width:0.8;" x="71.93" xlink:href="#mb7779495c1" y="289.766499"/>
      </g>
     </g>
     <g id="text_9">
      <!-- 0 -->
      <g transform="translate(54.75 295.845249)scale(0.16 -0.16)">
       <use xlink:href="#DejaVuSerif-48"/>
      </g>
     </g>
    </g>
    <g id="ytick_2">
     <g id="line2d_9">
      <g>
       <use style="stroke:#000000;stroke-width:0.8;" x="71.93" xlink:href="#mb7779495c1" y="236.665592"/>
      </g>
     </g>
     <g id="text_10">
      <!-- 20 -->
      <g transform="translate(44.57 242.744342)scale(0.16 -0.16)">
       <defs>
        <path d="M 12.796875 55.515625 
L 7.328125 55.515625 
L 7.328125 68.5 
Q 12.546875 71.296875 17.84375 72.75 
Q 23.140625 74.21875 28.21875 74.21875 
Q 39.59375 74.21875 46.1875 68.703125 
Q 52.78125 63.1875 52.78125 53.71875 
Q 52.78125 43.015625 37.84375 28.125 
Q 36.671875 27 36.078125 26.421875 
L 17.671875 8.015625 
L 48.09375 8.015625 
L 48.09375 17 
L 53.8125 17 
L 53.8125 0 
L 6.78125 0 
L 6.78125 5.328125 
L 28.90625 27.390625 
Q 36.234375 34.71875 39.359375 40.84375 
Q 42.484375 46.96875 42.484375 53.71875 
Q 42.484375 61.078125 38.640625 65.234375 
Q 34.8125 69.390625 28.078125 69.390625 
Q 21.09375 69.390625 17.28125 65.921875 
Q 13.484375 62.453125 12.796875 55.515625 
z
" id="DejaVuSerif-50"/>
       </defs>
       <use xlink:href="#DejaVuSerif-50"/>
       <use x="63.623047" xlink:href="#DejaVuSerif-48"/>
      </g>
     </g>
    </g>
    <g id="ytick_3">
     <g id="line2d_10">
      <g>
       <use style="stroke:#000000;stroke-width:0.8;" x="71.93" xlink:href="#mb7779495c1" y="183.564685"/>
      </g>
     </g>
     <g id="text_11">
      <!-- 40 -->
      <g transform="translate(44.57 189.643435)scale(0.16 -0.16)">
       <defs>
        <path d="M 34.90625 24.703125 
L 34.90625 63.484375 
L 10.015625 24.703125 
z
M 56.390625 0 
L 23.1875 0 
L 23.1875 5.171875 
L 34.90625 5.171875 
L 34.90625 19.484375 
L 3.078125 19.484375 
L 3.078125 24.8125 
L 35.015625 74.21875 
L 44.671875 74.21875 
L 44.671875 24.703125 
L 58.59375 24.703125 
L 58.59375 19.484375 
L 44.671875 19.484375 
L 44.671875 5.171875 
L 56.390625 5.171875 
z
" id="DejaVuSerif-52"/>
       </defs>
       <use xlink:href="#DejaVuSerif-52"/>
       <use x="63.623047" xlink:href="#DejaVuSerif-48"/>
      </g>
     </g>
    </g>
    <g id="ytick_4">
     <g id="line2d_11">
      <g>
       <use style="stroke:#000000;stroke-width:0.8;" x="71.93" xlink:href="#mb7779495c1" y="130.463778"/>
      </g>
     </g>
     <g id="text_12">
      <!-- 60 -->
      <g transform="translate(44.57 136.542528)scale(0.16 -0.16)">
       <defs>
        <path d="M 32.71875 3.421875 
Q 39.59375 3.421875 43.296875 8.46875 
Q 47.015625 13.53125 47.015625 23 
Q 47.015625 32.46875 43.296875 37.515625 
Q 39.59375 42.578125 32.71875 42.578125 
Q 25.734375 42.578125 22.0625 37.6875 
Q 18.40625 32.8125 18.40625 23.578125 
Q 18.40625 13.875 22.109375 8.640625 
Q 25.828125 3.421875 32.71875 3.421875 
z
M 16.796875 40.140625 
Q 20.125 43.796875 24.3125 45.59375 
Q 28.515625 47.40625 33.796875 47.40625 
Q 44.671875 47.40625 51 40.859375 
Q 57.328125 34.328125 57.328125 23 
Q 57.328125 11.921875 50.515625 5.25 
Q 43.703125 -1.421875 32.328125 -1.421875 
Q 19.96875 -1.421875 13.328125 7.78125 
Q 6.6875 17 6.6875 34.078125 
Q 6.6875 53.21875 14.546875 63.71875 
Q 22.40625 74.21875 36.71875 74.21875 
Q 40.578125 74.21875 44.828125 73.484375 
Q 49.078125 72.75 53.515625 71.296875 
L 53.515625 59.28125 
L 48 59.28125 
Q 47.40625 64.203125 44.234375 66.796875 
Q 41.0625 69.390625 35.6875 69.390625 
Q 26.21875 69.390625 21.578125 62.203125 
Q 16.9375 55.03125 16.796875 40.140625 
z
" id="DejaVuSerif-54"/>
       </defs>
       <use xlink:href="#DejaVuSerif-54"/>
       <use x="63.623047" xlink:href="#DejaVuSerif-48"/>
      </g>
     </g>
    </g>
    <g id="ytick_5">
     <g id="line2d_12">
      <g>
       <use style="stroke:#000000;stroke-width:0.8;" x="71.93" xlink:href="#mb7779495c1" y="77.362871"/>
      </g>
     </g>
     <g id="text_13">
      <!-- 80 -->
      <g transform="translate(44.57 83.441621)scale(0.16 -0.16)">
       <defs>
        <path d="M 46.578125 19.921875 
Q 46.578125 27.734375 42.6875 32.046875 
Q 38.8125 36.375 31.78125 36.375 
Q 24.75 36.375 20.875 32.046875 
Q 17 27.734375 17 19.921875 
Q 17 12.0625 20.875 7.734375 
Q 24.75 3.421875 31.78125 3.421875 
Q 38.8125 3.421875 42.6875 7.734375 
Q 46.578125 12.0625 46.578125 19.921875 
z
M 44.578125 55.328125 
Q 44.578125 61.96875 41.203125 65.671875 
Q 37.84375 69.390625 31.78125 69.390625 
Q 25.78125 69.390625 22.390625 65.671875 
Q 19 61.96875 19 55.328125 
Q 19 48.640625 22.390625 44.921875 
Q 25.78125 41.21875 31.78125 41.21875 
Q 37.84375 41.21875 41.203125 44.921875 
Q 44.578125 48.640625 44.578125 55.328125 
z
M 39.3125 38.8125 
Q 47.609375 37.703125 52.25 32.6875 
Q 56.890625 27.6875 56.890625 19.921875 
Q 56.890625 9.671875 50.390625 4.125 
Q 43.890625 -1.421875 31.78125 -1.421875 
Q 19.734375 -1.421875 13.203125 4.125 
Q 6.6875 9.671875 6.6875 19.921875 
Q 6.6875 27.6875 11.328125 32.6875 
Q 15.96875 37.703125 24.3125 38.8125 
Q 16.9375 40.140625 13 44.40625 
Q 9.078125 48.6875 9.078125 55.328125 
Q 9.078125 64.109375 15.125 69.15625 
Q 21.1875 74.21875 31.78125 74.21875 
Q 42.390625 74.21875 48.4375 69.15625 
Q 54.5 64.109375 54.5 55.328125 
Q 54.5 48.6875 50.5625 44.40625 
Q 46.625 40.140625 39.3125 38.8125 
z
" id="DejaVuSerif-56"/>
       </defs>
       <use xlink:href="#DejaVuSerif-56"/>
       <use x="63.623047" xlink:href="#DejaVuSerif-48"/>
      </g>
     </g>
    </g>
    <g id="ytick_6">
     <g id="line2d_13">
      <g>
       <use style="stroke:#000000;stroke-width:0.8;" x="71.93" xlink:href="#mb7779495c1" y="24.261964"/>
      </g>
     </g>
     <g id="text_14">
      <!-- 100 -->
      <g transform="translate(34.39 30.340714)scale(0.16 -0.16)">
       <use xlink:href="#DejaVuSerif-49"/>
       <use x="63.623047" xlink:href="#DejaVuSerif-48"/>
       <use x="127.246094" xlink:href="#DejaVuSerif-48"/>
      </g>
     </g>
    </g>
    <g id="text_15">
     <!-- SOC Value (cm⁻¹) -->
     <g transform="translate(26.230625 245.919375)rotate(-90)scale(0.2 -0.2)">
      <defs>
       <path d="M 9.28125 3.515625 
L 9.28125 20.125 
L 14.890625 20.0625 
Q 15.140625 11.765625 19.703125 7.78125 
Q 24.265625 3.8125 33.59375 3.8125 
Q 42.28125 3.8125 46.84375 7.25 
Q 51.421875 10.6875 51.421875 17.28125 
Q 51.421875 22.5625 48.65625 25.390625 
Q 45.90625 28.21875 37.015625 30.90625 
L 27.390625 33.796875 
Q 16.9375 36.96875 12.671875 41.703125 
Q 8.40625 46.4375 8.40625 54.6875 
Q 8.40625 63.96875 14.984375 69.09375 
Q 21.578125 74.21875 33.5 74.21875 
Q 38.578125 74.21875 44.625 73.109375 
Q 50.6875 72.015625 57.515625 69.921875 
L 57.515625 54.390625 
L 52 54.390625 
Q 51.171875 62.109375 46.84375 65.546875 
Q 42.53125 69 33.6875 69 
Q 25.984375 69 21.953125 65.84375 
Q 17.921875 62.703125 17.921875 56.6875 
Q 17.921875 51.46875 20.9375 48.484375 
Q 23.96875 45.515625 33.796875 42.578125 
L 42.828125 39.890625 
Q 52.734375 36.921875 56.953125 32.296875 
Q 61.1875 27.6875 61.1875 19.921875 
Q 61.1875 9.328125 54.390625 3.953125 
Q 47.609375 -1.421875 34.1875 -1.421875 
Q 28.171875 -1.421875 21.9375 -0.1875 
Q 15.71875 1.03125 9.28125 3.515625 
z
" id="DejaVuSerif-83"/>
       <path d="M 41.015625 3.8125 
Q 52.984375 3.8125 59.078125 12.03125 
Q 65.1875 20.265625 65.1875 36.375 
Q 65.1875 52.546875 59.078125 60.765625 
Q 52.984375 69 41.015625 69 
Q 29 69 22.890625 60.765625 
Q 16.796875 52.546875 16.796875 36.375 
Q 16.796875 20.265625 22.890625 12.03125 
Q 29 3.8125 41.015625 3.8125 
z
M 41.015625 -1.421875 
Q 33.59375 -1.421875 27.359375 1.015625 
Q 21.140625 3.46875 16.40625 8.203125 
Q 10.9375 13.671875 8.265625 20.609375 
Q 5.609375 27.546875 5.609375 36.375 
Q 5.609375 45.21875 8.265625 52.171875 
Q 10.9375 59.125 16.40625 64.59375 
Q 21.1875 69.390625 27.34375 71.796875 
Q 33.5 74.21875 41.015625 74.21875 
Q 56.890625 74.21875 66.65625 63.8125 
Q 76.421875 53.421875 76.421875 36.375 
Q 76.421875 27.640625 73.734375 20.625 
Q 71.046875 13.625 65.578125 8.203125 
Q 60.796875 3.421875 54.640625 1 
Q 48.484375 -1.421875 41.015625 -1.421875 
z
" id="DejaVuSerif-79"/>
       <path d="M 70.515625 19.28125 
Q 67.28125 9.078125 59.6875 3.828125 
Q 52.09375 -1.421875 40.484375 -1.421875 
Q 33.34375 -1.421875 27.234375 1.015625 
Q 21.140625 3.46875 16.40625 8.203125 
Q 10.9375 13.671875 8.265625 20.625 
Q 5.609375 27.59375 5.609375 36.375 
Q 5.609375 53.375 15.421875 63.796875 
Q 25.25 74.21875 41.3125 74.21875 
Q 47.265625 74.21875 54 72.65625 
Q 60.75 71.09375 68.5 67.921875 
L 68.5 51.125 
L 62.984375 51.125 
Q 61.1875 60.296875 55.734375 64.640625 
Q 50.296875 69 40.484375 69 
Q 28.8125 69 22.796875 60.71875 
Q 16.796875 52.4375 16.796875 36.375 
Q 16.796875 20.359375 22.796875 12.078125 
Q 28.8125 3.8125 40.484375 3.8125 
Q 48.640625 3.8125 53.90625 7.6875 
Q 59.1875 11.578125 61.53125 19.28125 
z
" id="DejaVuSerif-67"/>
       <path d="M 17.484375 67.671875 
L 39.015625 11.71875 
L 60.5 67.671875 
L 52.296875 67.671875 
L 52.296875 72.90625 
L 73.6875 72.90625 
L 73.6875 67.671875 
L 66.609375 67.671875 
L 40.578125 0 
L 32.171875 0 
L 6.296875 67.671875 
L -0.984375 67.671875 
L -0.984375 72.90625 
L 25.59375 72.90625 
L 25.59375 67.671875 
z
" id="DejaVuSerif-86"/>
       <path d="M 39.796875 16.3125 
L 39.796875 27.296875 
L 28.21875 27.296875 
Q 21.53125 27.296875 18.25 24.40625 
Q 14.984375 21.53125 14.984375 15.578125 
Q 14.984375 10.15625 18.296875 6.984375 
Q 21.625 3.8125 27.296875 3.8125 
Q 32.90625 3.8125 36.34375 7.28125 
Q 39.796875 10.75 39.796875 16.3125 
z
M 48.78125 32.421875 
L 48.78125 5.171875 
L 56.78125 5.171875 
L 56.78125 0 
L 39.796875 0 
L 39.796875 5.609375 
Q 36.8125 2 32.90625 0.28125 
Q 29 -1.421875 23.78125 -1.421875 
Q 15.140625 -1.421875 10.0625 3.171875 
Q 4.984375 7.765625 4.984375 15.578125 
Q 4.984375 23.640625 10.796875 28.078125 
Q 16.609375 32.515625 27.203125 32.515625 
L 39.796875 32.515625 
L 39.796875 36.078125 
Q 39.796875 42 36.203125 45.234375 
Q 32.625 48.484375 26.125 48.484375 
Q 20.75 48.484375 17.578125 46.046875 
Q 14.40625 43.609375 13.625 38.8125 
L 8.984375 38.8125 
L 8.984375 49.3125 
Q 13.671875 51.3125 18.09375 52.3125 
Q 22.515625 53.328125 26.703125 53.328125 
Q 37.5 53.328125 43.140625 47.96875 
Q 48.78125 42.625 48.78125 32.421875 
z
" id="DejaVuSerif-97"/>
       <path d="M 31.890625 -15.578125 
Q 20.015625 -10.25 13.953125 1.296875 
Q 7.90625 12.84375 7.90625 30.171875 
Q 7.90625 47.5625 13.953125 59.109375 
Q 20.015625 70.65625 31.890625 75.984375 
L 31.890625 71.1875 
Q 24.359375 66.015625 21.09375 56.609375 
Q 17.828125 47.21875 17.828125 30.171875 
Q 17.828125 13.1875 21.09375 3.78125 
Q 24.359375 -5.609375 31.890625 -10.796875 
z
" id="DejaVuSerif-40"/>
       <path d="M 51.421875 15.578125 
Q 49.515625 7.28125 44.09375 2.921875 
Q 38.671875 -1.421875 30.078125 -1.421875 
Q 18.75 -1.421875 11.859375 6.078125 
Q 4.984375 13.578125 4.984375 25.984375 
Q 4.984375 38.421875 11.859375 45.875 
Q 18.75 53.328125 30.078125 53.328125 
Q 35.015625 53.328125 39.890625 52.171875 
Q 44.78125 51.03125 49.703125 48.6875 
L 49.703125 35.40625 
L 44.484375 35.40625 
Q 43.453125 42.234375 40.015625 45.359375 
Q 36.578125 48.484375 30.171875 48.484375 
Q 22.90625 48.484375 19.1875 42.84375 
Q 15.484375 37.203125 15.484375 25.984375 
Q 15.484375 14.75 19.171875 9.078125 
Q 22.859375 3.421875 30.171875 3.421875 
Q 35.984375 3.421875 39.453125 6.4375 
Q 42.921875 9.46875 44.1875 15.578125 
z
" id="DejaVuSerif-99"/>
       <path d="M 6.6875 52.390625 
L 46.09375 52.390625 
L 46.09375 47.953125 
L 6.6875 47.953125 
z
" id="DejaVuSerif-8315"/>
       <path d="M 8.59375 32.625 
L 8.59375 36.71875 
L 17 36.71875 
L 17 67.671875 
L 7.171875 62.5 
L 7.171875 67.09375 
L 18.890625 73.390625 
L 23.875 73.390625 
L 23.875 36.71875 
L 32.328125 36.71875 
L 32.328125 32.625 
z
" id="DejaVuSerif-185"/>
       <path d="M 7.078125 -15.578125 
L 7.078125 -10.796875 
Q 14.59375 -5.609375 17.890625 3.78125 
Q 21.1875 13.1875 21.1875 30.171875 
Q 21.1875 47.21875 17.890625 56.609375 
Q 14.59375 66.015625 7.078125 71.1875 
L 7.078125 75.984375 
Q 19 70.65625 25.046875 59.109375 
Q 31.109375 47.5625 31.109375 30.171875 
Q 31.109375 12.84375 25.046875 1.296875 
Q 19 -10.25 7.078125 -15.578125 
z
" id="DejaVuSerif-41"/>
      </defs>
      <use xlink:href="#DejaVuSerif-83"/>
      <use x="68.505859" xlink:href="#DejaVuSerif-79"/>
      <use x="150.488281" xlink:href="#DejaVuSerif-67"/>
      <use x="227.001953" xlink:href="#DejaVuSerif-32"/>
      <use x="258.789062" xlink:href="#DejaVuSerif-86"/>
      <use x="321.880859" xlink:href="#DejaVuSerif-97"/>
      <use x="381.5" xlink:href="#DejaVuSerif-108"/>
      <use x="413.482422" xlink:href="#DejaVuSerif-117"/>
      <use x="477.886719" xlink:href="#DejaVuSerif-101"/>
      <use x="537.066406" xlink:href="#DejaVuSerif-32"/>
      <use x="568.853516" xlink:href="#DejaVuSerif-40"/>
      <use x="607.867188" xlink:href="#DejaVuSerif-99"/>
      <use x="663.873047" xlink:href="#DejaVuSerif-109"/>
      <use x="758.697266" xlink:href="#DejaVuSerif-8315"/>
      <use x="811.480469" xlink:href="#DejaVuSerif-185"/>
      <use x="851.568359" xlink:href="#DejaVuSerif-41"/>
     </g>
    </g>
   </g>
   <g id="line2d_14">
    <path clip-path="url(#p60ebbce33e)" d="M 87.298611 232.968256 
L 112.912962 231.194367 
L 138.527313 229.578586 
L 164.141664 227.895712 
L 189.756015 225.890303 
L 215.370366 223.557023 
L 240.984717 222.240678 
L 240.984717 222.240678 
L 266.599068 223.557023 
L 292.213419 225.890303 
L 317.82777 227.895712 
L 343.442121 229.578586 
L 369.056472 231.194367 
L 394.670823 232.968256 
" style="fill:none;stroke:#1f77b4;stroke-dasharray:5.55,2.4;stroke-dashoffset:0;stroke-width:1.5;"/>
    <defs>
     <path d="M 0 3 
C 0.795609 3 1.55874 2.683901 2.12132 2.12132 
C 2.683901 1.55874 3 0.795609 3 0 
C 3 -0.795609 2.683901 -1.55874 2.12132 -2.12132 
C 1.55874 -2.683901 0.795609 -3 0 -3 
C -0.795609 -3 -1.55874 -2.683901 -2.12132 -2.12132 
C -2.683901 -1.55874 -3 -0.795609 -3 0 
C -3 0.795609 -2.683901 1.55874 -2.12132 2.12132 
C -1.55874 2.683901 -0.795609 3 0 3 
z
" id="m1ff807f7de" style="stroke:#1f77b4;"/>
    </defs>
    <g clip-path="url(#p60ebbce33e)">
     <use style="fill:#1f77b4;stroke:#1f77b4;" x="87.298611" xlink:href="#m1ff807f7de" y="232.968256"/>
     <use style="fill:#1f77b4;stroke:#1f77b4;" x="112.912962" xlink:href="#m1ff807f7de" y="231.194367"/>
     <use style="fill:#1f77b4;stroke:#1f77b4;" x="138.527313" xlink:href="#m1ff807f7de" y="229.578586"/>
     <use style="fill:#1f77b4;stroke:#1f77b4;" x="164.141664" xlink:href="#m1ff807f7de" y="227.895712"/>
     <use style="fill:#1f77b4;stroke:#1f77b4;" x="189.756015" xlink:href="#m1ff807f7de" y="225.890303"/>
     <use style="fill:#1f77b4;stroke:#1f77b4;" x="215.370366" xlink:href="#m1ff807f7de" y="223.557023"/>
     <use style="fill:#1f77b4;stroke:#1f77b4;" x="240.984717" xlink:href="#m1ff807f7de" y="222.240678"/>
     <use style="fill:#1f77b4;stroke:#1f77b4;" x="240.984717" xlink:href="#m1ff807f7de" y="222.240678"/>
     <use style="fill:#1f77b4;stroke:#1f77b4;" x="266.599068" xlink:href="#m1ff807f7de" y="223.557023"/>
     <use style="fill:#1f77b4;stroke:#1f77b4;" x="292.213419" xlink:href="#m1ff807f7de" y="225.890303"/>
     <use style="fill:#1f77b4;stroke:#1f77b4;" x="317.82777" xlink:href="#m1ff807f7de" y="227.895712"/>
     <use style="fill:#1f77b4;stroke:#1f77b4;" x="343.442121" xlink:href="#m1ff807f7de" y="229.578586"/>
     <use style="fill:#1f77b4;stroke:#1f77b4;" x="369.056472" xlink:href="#m1ff807f7de" y="231.194367"/>
     <use style="fill:#1f77b4;stroke:#1f77b4;" x="394.670823" xlink:href="#m1ff807f7de" y="232.968256"/>
    </g>
   </g>
   <g id="line2d_15">
    <path clip-path="url(#p60ebbce33e)" d="M 87.298611 228.089344 
L 112.912962 230.710538 
L 138.527313 233.331997 
L 164.141664 235.597388 
L 189.756015 237.01181 
L 215.370366 237.228302 
L 240.984717 236.942779 
L 240.984717 236.942779 
L 266.599068 237.228302 
L 292.213419 237.01181 
L 317.82777 235.597388 
L 343.442121 233.331997 
L 369.056472 230.710538 
L 394.670823 228.089344 
" style="fill:none;stroke:#ff7f0e;stroke-dasharray:5.55,2.4;stroke-dashoffset:0;stroke-width:1.5;"/>
    <defs>
     <path d="M 0 3 
C 0.795609 3 1.55874 2.683901 2.12132 2.12132 
C 2.683901 1.55874 3 0.795609 3 0 
C 3 -0.795609 2.683901 -1.55874 2.12132 -2.12132 
C 1.55874 -2.683901 0.795609 -3 0 -3 
C -0.795609 -3 -1.55874 -2.683901 -2.12132 -2.12132 
C -2.683901 -1.55874 -3 -0.795609 -3 0 
C -3 0.795609 -2.683901 1.55874 -2.12132 2.12132 
C -1.55874 2.683901 -0.795609 3 0 3 
z
" id="m5963338350" style="stroke:#ff7f0e;"/>
    </defs>
    <g clip-path="url(#p60ebbce33e)">
     <use style="fill:#ff7f0e;stroke:#ff7f0e;" x="87.298611" xlink:href="#m5963338350" y="228.089344"/>
     <use style="fill:#ff7f0e;stroke:#ff7f0e;" x="112.912962" xlink:href="#m5963338350" y="230.710538"/>
     <use style="fill:#ff7f0e;stroke:#ff7f0e;" x="138.527313" xlink:href="#m5963338350" y="233.331997"/>
     <use style="fill:#ff7f0e;stroke:#ff7f0e;" x="164.141664" xlink:href="#m5963338350" y="235.597388"/>
     <use style="fill:#ff7f0e;stroke:#ff7f0e;" x="189.756015" xlink:href="#m5963338350" y="237.01181"/>
     <use style="fill:#ff7f0e;stroke:#ff7f0e;" x="215.370366" xlink:href="#m5963338350" y="237.228302"/>
     <use style="fill:#ff7f0e;stroke:#ff7f0e;" x="240.984717" xlink:href="#m5963338350" y="236.942779"/>
     <use style="fill:#ff7f0e;stroke:#ff7f0e;" x="240.984717" xlink:href="#m5963338350" y="236.942779"/>
     <use style="fill:#ff7f0e;stroke:#ff7f0e;" x="266.599068" xlink:href="#m5963338350" y="237.228302"/>
     <use style="fill:#ff7f0e;stroke:#ff7f0e;" x="292.213419" xlink:href="#m5963338350" y="237.01181"/>
     <use style="fill:#ff7f0e;stroke:#ff7f0e;" x="317.82777" xlink:href="#m5963338350" y="235.597388"/>
     <use style="fill:#ff7f0e;stroke:#ff7f0e;" x="343.442121" xlink:href="#m5963338350" y="233.331997"/>
     <use style="fill:#ff7f0e;stroke:#ff7f0e;" x="369.056472" xlink:href="#m5963338350" y="230.710538"/>
     <use style="fill:#ff7f0e;stroke:#ff7f0e;" x="394.670823" xlink:href="#m5963338350" y="228.089344"/>
    </g>
   </g>
   <g id="line2d_16">
    <path clip-path="url(#p60ebbce33e)" d="M 87.298611 58.127121 
L 112.912962 56.817042 
L 138.527313 53.964036 
L 164.141664 48.872695 
L 189.756015 40.702297 
L 215.370366 30.131871 
L 240.984717 24.078182 
L 240.984717 24.078182 
L 266.599068 30.131871 
L 292.213419 40.702297 
L 317.82777 48.872695 
L 343.442121 53.964036 
L 369.056472 56.817042 
L 394.670823 58.127121 
" style="fill:none;stroke:#2ca02c;stroke-dasharray:5.55,2.4;stroke-dashoffset:0;stroke-width:1.5;"/>
    <defs>
     <path d="M 0 3 
C 0.795609 3 1.55874 2.683901 2.12132 2.12132 
C 2.683901 1.55874 3 0.795609 3 0 
C 3 -0.795609 2.683901 -1.55874 2.12132 -2.12132 
C 1.55874 -2.683901 0.795609 -3 0 -3 
C -0.795609 -3 -1.55874 -2.683901 -2.12132 -2.12132 
C -2.683901 -1.55874 -3 -0.795609 -3 0 
C -3 0.795609 -2.683901 1.55874 -2.12132 2.12132 
C -1.55874 2.683901 -0.795609 3 0 3 
z
" id="ma0929fb354" style="stroke:#2ca02c;"/>
    </defs>
    <g clip-path="url(#p60ebbce33e)">
     <use style="fill:#2ca02c;stroke:#2ca02c;" x="87.298611" xlink:href="#ma0929fb354" y="58.127121"/>
     <use style="fill:#2ca02c;stroke:#2ca02c;" x="112.912962" xlink:href="#ma0929fb354" y="56.817042"/>
     <use style="fill:#2ca02c;stroke:#2ca02c;" x="138.527313" xlink:href="#ma0929fb354" y="53.964036"/>
     <use style="fill:#2ca02c;stroke:#2ca02c;" x="164.141664" xlink:href="#ma0929fb354" y="48.872695"/>
     <use style="fill:#2ca02c;stroke:#2ca02c;" x="189.756015" xlink:href="#ma0929fb354" y="40.702297"/>
     <use style="fill:#2ca02c;stroke:#2ca02c;" x="215.370366" xlink:href="#ma0929fb354" y="30.131871"/>
     <use style="fill:#2ca02c;stroke:#2ca02c;" x="240.984717" xlink:href="#ma0929fb354" y="24.078182"/>
     <use style="fill:#2ca02c;stroke:#2ca02c;" x="240.984717" xlink:href="#ma0929fb354" y="24.078182"/>
     <use style="fill:#2ca02c;stroke:#2ca02c;" x="266.599068" xlink:href="#ma0929fb354" y="30.131871"/>
     <use style="fill:#2ca02c;stroke:#2ca02c;" x="292.213419" xlink:href="#ma0929fb354" y="40.702297"/>
     <use style="fill:#2ca02c;stroke:#2ca02c;" x="317.82777" xlink:href="#ma0929fb354" y="48.872695"/>
     <use style="fill:#2ca02c;stroke:#2ca02c;" x="343.442121" xlink:href="#ma0929fb354" y="53.964036"/>
     <use style="fill:#2ca02c;stroke:#2ca02c;" x="369.056472" xlink:href="#ma0929fb354" y="56.817042"/>
     <use style="fill:#2ca02c;stroke:#2ca02c;" x="394.670823" xlink:href="#ma0929fb354" y="58.127121"/>
    </g>
   </g>
   <g id="line2d_17">
    <path clip-path="url(#p60ebbce33e)" d="M 87.298611 270.786642 
L 112.912962 274.465606 
L 138.527313 277.821556 
L 164.141664 280.872442 
L 189.756015 283.670329 
L 215.370366 286.191215 
L 240.984717 287.651782 
L 240.984717 287.651782 
L 266.599068 286.191215 
L 292.213419 283.670329 
L 317.82777 280.872442 
L 343.442121 277.821556 
L 369.056472 274.465606 
L 394.670823 270.786642 
" style="fill:none;stroke:#d62728;stroke-dasharray:5.55,2.4;stroke-dashoffset:0;stroke-width:1.5;"/>
    <defs>
     <path d="M 0 3 
C 0.795609 3 1.55874 2.683901 2.12132 2.12132 
C 2.683901 1.55874 3 0.795609 3 0 
C 3 -0.795609 2.683901 -1.55874 2.12132 -2.12132 
C 1.55874 -2.683901 0.795609 -3 0 -3 
C -0.795609 -3 -1.55874 -2.683901 -2.12132 -2.12132 
C -2.683901 -1.55874 -3 -0.795609 -3 0 
C -3 0.795609 -2.683901 1.55874 -2.12132 2.12132 
C -1.55874 2.683901 -0.795609 3 0 3 
z
" id="m87723fb433" style="stroke:#d62728;"/>
    </defs>
    <g clip-path="url(#p60ebbce33e)">
     <use style="fill:#d62728;stroke:#d62728;" x="87.298611" xlink:href="#m87723fb433" y="270.786642"/>
     <use style="fill:#d62728;stroke:#d62728;" x="112.912962" xlink:href="#m87723fb433" y="274.465606"/>
     <use style="fill:#d62728;stroke:#d62728;" x="138.527313" xlink:href="#m87723fb433" y="277.821556"/>
     <use style="fill:#d62728;stroke:#d62728;" x="164.141664" xlink:href="#m87723fb433" y="280.872442"/>
     <use style="fill:#d62728;stroke:#d62728;" x="189.756015" xlink:href="#m87723fb433" y="283.670329"/>
     <use style="fill:#d62728;stroke:#d62728;" x="215.370366" xlink:href="#m87723fb433" y="286.191215"/>
     <use style="fill:#d62728;stroke:#d62728;" x="240.984717" xlink:href="#m87723fb433" y="287.651782"/>
     <use style="fill:#d62728;stroke:#d62728;" x="240.984717" xlink:href="#m87723fb433" y="287.651782"/>
     <use style="fill:#d62728;stroke:#d62728;" x="266.599068" xlink:href="#m87723fb433" y="286.191215"/>
     <use style="fill:#d62728;stroke:#d62728;" x="292.213419" xlink:href="#m87723fb433" y="283.670329"/>
     <use style="fill:#d62728;stroke:#d62728;" x="317.82777" xlink:href="#m87723fb433" y="280.872442"/>
     <use style="fill:#d62728;stroke:#d62728;" x="343.442121" xlink:href="#m87723fb433" y="277.821556"/>
     <use style="fill:#d62728;stroke:#d62728;" x="369.056472" xlink:href="#m87723fb433" y="274.465606"/>
     <use style="fill:#d62728;stroke:#d62728;" x="394.670823" xlink:href="#m87723fb433" y="270.786642"/>
    </g>
   </g>
   <g id="line2d_18">
    <path clip-path="url(#p60ebbce33e)" d="M 87.298611 112.265168 
L 112.912962 116.181891 
L 138.527313 123.917897 
L 164.141664 138.218289 
L 189.756015 164.804427 
L 215.370366 213.624445 
L 240.984717 289.641818 
L 240.984717 289.641818 
L 266.599068 213.624445 
L 292.213419 164.804427 
L 317.82777 138.218289 
L 343.442121 123.917897 
L 369.056472 116.181891 
L 394.670823 112.265168 
" style="fill:none;stroke:#9467bd;stroke-dasharray:5.55,2.4;stroke-dashoffset:0;stroke-width:1.5;"/>
    <defs>
     <path d="M 0 3 
C 0.795609 3 1.55874 2.683901 2.12132 2.12132 
C 2.683901 1.55874 3 0.795609 3 0 
C 3 -0.795609 2.683901 -1.55874 2.12132 -2.12132 
C 1.55874 -2.683901 0.795609 -3 0 -3 
C -0.795609 -3 -1.55874 -2.683901 -2.12132 -2.12132 
C -2.683901 -1.55874 -3 -0.795609 -3 0 
C -3 0.795609 -2.683901 1.55874 -2.12132 2.12132 
C -1.55874 2.683901 -0.795609 3 0 3 
z
" id="m9088c1a61a" style="stroke:#9467bd;"/>
    </defs>
    <g clip-path="url(#p60ebbce33e)">
     <use style="fill:#9467bd;stroke:#9467bd;" x="87.298611" xlink:href="#m9088c1a61a" y="112.265168"/>
     <use style="fill:#9467bd;stroke:#9467bd;" x="112.912962" xlink:href="#m9088c1a61a" y="116.181891"/>
     <use style="fill:#9467bd;stroke:#9467bd;" x="138.527313" xlink:href="#m9088c1a61a" y="123.917897"/>
     <use style="fill:#9467bd;stroke:#9467bd;" x="164.141664" xlink:href="#m9088c1a61a" y="138.218289"/>
     <use style="fill:#9467bd;stroke:#9467bd;" x="189.756015" xlink:href="#m9088c1a61a" y="164.804427"/>
     <use style="fill:#9467bd;stroke:#9467bd;" x="215.370366" xlink:href="#m9088c1a61a" y="213.624445"/>
     <use style="fill:#9467bd;stroke:#9467bd;" x="240.984717" xlink:href="#m9088c1a61a" y="289.641818"/>
     <use style="fill:#9467bd;stroke:#9467bd;" x="240.984717" xlink:href="#m9088c1a61a" y="289.641818"/>
     <use style="fill:#9467bd;stroke:#9467bd;" x="266.599068" xlink:href="#m9088c1a61a" y="213.624445"/>
     <use style="fill:#9467bd;stroke:#9467bd;" x="292.213419" xlink:href="#m9088c1a61a" y="164.804427"/>
     <use style="fill:#9467bd;stroke:#9467bd;" x="317.82777" xlink:href="#m9088c1a61a" y="138.218289"/>
     <use style="fill:#9467bd;stroke:#9467bd;" x="343.442121" xlink:href="#m9088c1a61a" y="123.917897"/>
     <use style="fill:#9467bd;stroke:#9467bd;" x="369.056472" xlink:href="#m9088c1a61a" y="116.181891"/>
     <use style="fill:#9467bd;stroke:#9467bd;" x="394.670823" xlink:href="#m9088c1a61a" y="112.265168"/>
    </g>
   </g>
   <g id="line2d_19">
    <path clip-path="url(#p60ebbce33e)" d="M 87.298611 277.6258 
L 112.912962 277.708239 
L 138.527313 277.681821 
L 164.141664 277.500827 
L 189.756015 277.098694 
L 215.370366 276.525151 
L 240.984717 276.189128 
L 240.984717 276.189128 
L 266.599068 276.525151 
L 292.213419 277.098694 
L 317.82777 277.500827 
L 343.442121 277.681821 
L 369.056472 277.708239 
L 394.670823 277.6258 
" style="fill:none;stroke:#8c564b;stroke-dasharray:5.55,2.4;stroke-dashoffset:0;stroke-width:1.5;"/>
    <defs>
     <path d="M 0 3 
C 0.795609 3 1.55874 2.683901 2.12132 2.12132 
C 2.683901 1.55874 3 0.795609 3 0 
C 3 -0.795609 2.683901 -1.55874 2.12132 -2.12132 
C 1.55874 -2.683901 0.795609 -3 0 -3 
C -0.795609 -3 -1.55874 -2.683901 -2.12132 -2.12132 
C -2.683901 -1.55874 -3 -0.795609 -3 0 
C -3 0.795609 -2.683901 1.55874 -2.12132 2.12132 
C -1.55874 2.683901 -0.795609 3 0 3 
z
" id="m3596ec601e" style="stroke:#8c564b;"/>
    </defs>
    <g clip-path="url(#p60ebbce33e)">
     <use style="fill:#8c564b;stroke:#8c564b;" x="87.298611" xlink:href="#m3596ec601e" y="277.6258"/>
     <use style="fill:#8c564b;stroke:#8c564b;" x="112.912962" xlink:href="#m3596ec601e" y="277.708239"/>
     <use style="fill:#8c564b;stroke:#8c564b;" x="138.527313" xlink:href="#m3596ec601e" y="277.681821"/>
     <use style="fill:#8c564b;stroke:#8c564b;" x="164.141664" xlink:href="#m3596ec601e" y="277.500827"/>
     <use style="fill:#8c564b;stroke:#8c564b;" x="189.756015" xlink:href="#m3596ec601e" y="277.098694"/>
     <use style="fill:#8c564b;stroke:#8c564b;" x="215.370366" xlink:href="#m3596ec601e" y="276.525151"/>
     <use style="fill:#8c564b;stroke:#8c564b;" x="240.984717" xlink:href="#m3596ec601e" y="276.189128"/>
     <use style="fill:#8c564b;stroke:#8c564b;" x="240.984717" xlink:href="#m3596ec601e" y="276.189128"/>
     <use style="fill:#8c564b;stroke:#8c564b;" x="266.599068" xlink:href="#m3596ec601e" y="276.525151"/>
     <use style="fill:#8c564b;stroke:#8c564b;" x="292.213419" xlink:href="#m3596ec601e" y="277.098694"/>
     <use style="fill:#8c564b;stroke:#8c564b;" x="317.82777" xlink:href="#m3596ec601e" y="277.500827"/>
     <use style="fill:#8c564b;stroke:#8c564b;" x="343.442121" xlink:href="#m3596ec601e" y="277.681821"/>
     <use style="fill:#8c564b;stroke:#8c564b;" x="369.056472" xlink:href="#m3596ec601e" y="277.708239"/>
     <use style="fill:#8c564b;stroke:#8c564b;" x="394.670823" xlink:href="#m3596ec601e" y="277.6258"/>
    </g>
   </g>
   <g id="line2d_20">
    <path clip-path="url(#p60ebbce33e)" d="M 87.298611 193.72703 
L 112.912962 193.224829 
L 138.527313 192.274986 
L 164.141664 190.559588 
L 189.756015 187.71861 
L 215.370366 183.908168 
L 240.984717 181.68324 
L 240.984717 181.68324 
L 266.599068 183.908168 
L 292.213419 187.71861 
L 317.82777 190.559588 
L 343.442121 192.274986 
L 369.056472 193.224829 
L 394.670823 193.72703 
" style="fill:none;stroke:#e377c2;stroke-dasharray:5.55,2.4;stroke-dashoffset:0;stroke-width:1.5;"/>
    <defs>
     <path d="M 0 3 
C 0.795609 3 1.55874 2.683901 2.12132 2.12132 
C 2.683901 1.55874 3 0.795609 3 0 
C 3 -0.795609 2.683901 -1.55874 2.12132 -2.12132 
C 1.55874 -2.683901 0.795609 -3 0 -3 
C -0.795609 -3 -1.55874 -2.683901 -2.12132 -2.12132 
C -2.683901 -1.55874 -3 -0.795609 -3 0 
C -3 0.795609 -2.683901 1.55874 -2.12132 2.12132 
C -1.55874 2.683901 -0.795609 3 0 3 
z
" id="m7035f91247" style="stroke:#e377c2;"/>
    </defs>
    <g clip-path="url(#p60ebbce33e)">
     <use style="fill:#e377c2;stroke:#e377c2;" x="87.298611" xlink:href="#m7035f91247" y="193.72703"/>
     <use style="fill:#e377c2;stroke:#e377c2;" x="112.912962" xlink:href="#m7035f91247" y="193.224829"/>
     <use style="fill:#e377c2;stroke:#e377c2;" x="138.527313" xlink:href="#m7035f91247" y="192.274986"/>
     <use style="fill:#e377c2;stroke:#e377c2;" x="164.141664" xlink:href="#m7035f91247" y="190.559588"/>
     <use style="fill:#e377c2;stroke:#e377c2;" x="189.756015" xlink:href="#m7035f91247" y="187.71861"/>
     <use style="fill:#e377c2;stroke:#e377c2;" x="215.370366" xlink:href="#m7035f91247" y="183.908168"/>
     <use style="fill:#e377c2;stroke:#e377c2;" x="240.984717" xlink:href="#m7035f91247" y="181.68324"/>
     <use style="fill:#e377c2;stroke:#e377c2;" x="240.984717" xlink:href="#m7035f91247" y="181.68324"/>
     <use style="fill:#e377c2;stroke:#e377c2;" x="266.599068" xlink:href="#m7035f91247" y="183.908168"/>
     <use style="fill:#e377c2;stroke:#e377c2;" x="292.213419" xlink:href="#m7035f91247" y="187.71861"/>
     <use style="fill:#e377c2;stroke:#e377c2;" x="317.82777" xlink:href="#m7035f91247" y="190.559588"/>
     <use style="fill:#e377c2;stroke:#e377c2;" x="343.442121" xlink:href="#m7035f91247" y="192.274986"/>
     <use style="fill:#e377c2;stroke:#e377c2;" x="369.056472" xlink:href="#m7035f91247" y="193.224829"/>
     <use style="fill:#e377c2;stroke:#e377c2;" x="394.670823" xlink:href="#m7035f91247" y="193.72703"/>
    </g>
   </g>
   <g id="line2d_21">
    <path clip-path="url(#p60ebbce33e)" d="M 87.298611 279.116847 
L 112.912962 278.588015 
L 138.527313 277.909651 
L 164.141664 277.057434 
L 189.756015 276.036198 
L 215.370366 274.959417 
L 240.984717 274.416354 
L 240.984717 274.416354 
L 266.599068 274.959417 
L 292.213419 276.036198 
L 317.82777 277.057434 
L 343.442121 277.909651 
L 369.056472 278.588015 
L 394.670823 279.116847 
" style="fill:none;stroke:#7f7f7f;stroke-dasharray:5.55,2.4;stroke-dashoffset:0;stroke-width:1.5;"/>
    <defs>
     <path d="M 0 3 
C 0.795609 3 1.55874 2.683901 2.12132 2.12132 
C 2.683901 1.55874 3 0.795609 3 0 
C 3 -0.795609 2.683901 -1.55874 2.12132 -2.12132 
C 1.55874 -2.683901 0.795609 -3 0 -3 
C -0.795609 -3 -1.55874 -2.683901 -2.12132 -2.12132 
C -2.683901 -1.55874 -3 -0.795609 -3 0 
C -3 0.795609 -2.683901 1.55874 -2.12132 2.12132 
C -1.55874 2.683901 -0.795609 3 0 3 
z
" id="m93b411e1bd" style="stroke:#7f7f7f;"/>
    </defs>
    <g clip-path="url(#p60ebbce33e)">
     <use style="fill:#7f7f7f;stroke:#7f7f7f;" x="87.298611" xlink:href="#m93b411e1bd" y="279.116847"/>
     <use style="fill:#7f7f7f;stroke:#7f7f7f;" x="112.912962" xlink:href="#m93b411e1bd" y="278.588015"/>
     <use style="fill:#7f7f7f;stroke:#7f7f7f;" x="138.527313" xlink:href="#m93b411e1bd" y="277.909651"/>
     <use style="fill:#7f7f7f;stroke:#7f7f7f;" x="164.141664" xlink:href="#m93b411e1bd" y="277.057434"/>
     <use style="fill:#7f7f7f;stroke:#7f7f7f;" x="189.756015" xlink:href="#m93b411e1bd" y="276.036198"/>
     <use style="fill:#7f7f7f;stroke:#7f7f7f;" x="215.370366" xlink:href="#m93b411e1bd" y="274.959417"/>
     <use style="fill:#7f7f7f;stroke:#7f7f7f;" x="240.984717" xlink:href="#m93b411e1bd" y="274.416354"/>
     <use style="fill:#7f7f7f;stroke:#7f7f7f;" x="240.984717" xlink:href="#m93b411e1bd" y="274.416354"/>
     <use style="fill:#7f7f7f;stroke:#7f7f7f;" x="266.599068" xlink:href="#m93b411e1bd" y="274.959417"/>
     <use style="fill:#7f7f7f;stroke:#7f7f7f;" x="292.213419" xlink:href="#m93b411e1bd" y="276.036198"/>
     <use style="fill:#7f7f7f;stroke:#7f7f7f;" x="317.82777" xlink:href="#m93b411e1bd" y="277.057434"/>
     <use style="fill:#7f7f7f;stroke:#7f7f7f;" x="343.442121" xlink:href="#m93b411e1bd" y="277.909651"/>
     <use style="fill:#7f7f7f;stroke:#7f7f7f;" x="369.056472" xlink:href="#m93b411e1bd" y="278.588015"/>
     <use style="fill:#7f7f7f;stroke:#7f7f7f;" x="394.670823" xlink:href="#m93b411e1bd" y="279.116847"/>
    </g>
   </g>
   <g id="line2d_22">
    <path clip-path="url(#p60ebbce33e)" d="M 87.298611 115.579939 
L 112.912962 113.436707 
L 138.527313 110.206207 
L 164.141664 105.368422 
L 189.756015 98.279318 
L 215.370366 89.527838 
L 240.984717 84.611171 
L 240.984717 84.611171 
L 266.599068 89.527838 
L 292.213419 98.279318 
L 317.82777 105.368422 
L 343.442121 110.206207 
L 369.056472 113.436707 
L 394.670823 115.579939 
" style="fill:none;stroke:#bcbd22;stroke-dasharray:5.55,2.4;stroke-dashoffset:0;stroke-width:1.5;"/>
    <defs>
     <path d="M 0 3 
C 0.795609 3 1.55874 2.683901 2.12132 2.12132 
C 2.683901 1.55874 3 0.795609 3 0 
C 3 -0.795609 2.683901 -1.55874 2.12132 -2.12132 
C 1.55874 -2.683901 0.795609 -3 0 -3 
C -0.795609 -3 -1.55874 -2.683901 -2.12132 -2.12132 
C -2.683901 -1.55874 -3 -0.795609 -3 0 
C -3 0.795609 -2.683901 1.55874 -2.12132 2.12132 
C -1.55874 2.683901 -0.795609 3 0 3 
z
" id="m56f5e7f0db" style="stroke:#bcbd22;"/>
    </defs>
    <g clip-path="url(#p60ebbce33e)">
     <use style="fill:#bcbd22;stroke:#bcbd22;" x="87.298611" xlink:href="#m56f5e7f0db" y="115.579939"/>
     <use style="fill:#bcbd22;stroke:#bcbd22;" x="112.912962" xlink:href="#m56f5e7f0db" y="113.436707"/>
     <use style="fill:#bcbd22;stroke:#bcbd22;" x="138.527313" xlink:href="#m56f5e7f0db" y="110.206207"/>
     <use style="fill:#bcbd22;stroke:#bcbd22;" x="164.141664" xlink:href="#m56f5e7f0db" y="105.368422"/>
     <use style="fill:#bcbd22;stroke:#bcbd22;" x="189.756015" xlink:href="#m56f5e7f0db" y="98.279318"/>
     <use style="fill:#bcbd22;stroke:#bcbd22;" x="215.370366" xlink:href="#m56f5e7f0db" y="89.527838"/>
     <use style="fill:#bcbd22;stroke:#bcbd22;" x="240.984717" xlink:href="#m56f5e7f0db" y="84.611171"/>
     <use style="fill:#bcbd22;stroke:#bcbd22;" x="240.984717" xlink:href="#m56f5e7f0db" y="84.611171"/>
     <use style="fill:#bcbd22;stroke:#bcbd22;" x="266.599068" xlink:href="#m56f5e7f0db" y="89.527838"/>
     <use style="fill:#bcbd22;stroke:#bcbd22;" x="292.213419" xlink:href="#m56f5e7f0db" y="98.279318"/>
     <use style="fill:#bcbd22;stroke:#bcbd22;" x="317.82777" xlink:href="#m56f5e7f0db" y="105.368422"/>
     <use style="fill:#bcbd22;stroke:#bcbd22;" x="343.442121" xlink:href="#m56f5e7f0db" y="110.206207"/>
     <use style="fill:#bcbd22;stroke:#bcbd22;" x="369.056472" xlink:href="#m56f5e7f0db" y="113.436707"/>
     <use style="fill:#bcbd22;stroke:#bcbd22;" x="394.670823" xlink:href="#m56f5e7f0db" y="115.579939"/>
    </g>
   </g>
   <g id="line2d_23">
    <path clip-path="url(#p60ebbce33e)" d="M 87.298611 277.529103 
L 112.912962 280.502807 
L 138.527313 283.086644 
L 164.141664 285.10793 
L 189.756015 286.179294 
L 215.370366 286.107953 
L 240.984717 285.825668 
L 240.984717 285.825668 
L 266.599068 286.107953 
L 292.213419 286.179294 
L 317.82777 285.10793 
L 343.442121 283.086644 
L 369.056472 280.502807 
L 394.670823 277.529103 
" style="fill:none;stroke:#17becf;stroke-dasharray:5.55,2.4;stroke-dashoffset:0;stroke-width:1.5;"/>
    <defs>
     <path d="M 0 3 
C 0.795609 3 1.55874 2.683901 2.12132 2.12132 
C 2.683901 1.55874 3 0.795609 3 0 
C 3 -0.795609 2.683901 -1.55874 2.12132 -2.12132 
C 1.55874 -2.683901 0.795609 -3 0 -3 
C -0.795609 -3 -1.55874 -2.683901 -2.12132 -2.12132 
C -2.683901 -1.55874 -3 -0.795609 -3 0 
C -3 0.795609 -2.683901 1.55874 -2.12132 2.12132 
C -1.55874 2.683901 -0.795609 3 0 3 
z
" id="m01ef1d23cf" style="stroke:#17becf;"/>
    </defs>
    <g clip-path="url(#p60ebbce33e)">
     <use style="fill:#17becf;stroke:#17becf;" x="87.298611" xlink:href="#m01ef1d23cf" y="277.529103"/>
     <use style="fill:#17becf;stroke:#17becf;" x="112.912962" xlink:href="#m01ef1d23cf" y="280.502807"/>
     <use style="fill:#17becf;stroke:#17becf;" x="138.527313" xlink:href="#m01ef1d23cf" y="283.086644"/>
     <use style="fill:#17becf;stroke:#17becf;" x="164.141664" xlink:href="#m01ef1d23cf" y="285.10793"/>
     <use style="fill:#17becf;stroke:#17becf;" x="189.756015" xlink:href="#m01ef1d23cf" y="286.179294"/>
     <use style="fill:#17becf;stroke:#17becf;" x="215.370366" xlink:href="#m01ef1d23cf" y="286.107953"/>
     <use style="fill:#17becf;stroke:#17becf;" x="240.984717" xlink:href="#m01ef1d23cf" y="285.825668"/>
     <use style="fill:#17becf;stroke:#17becf;" x="240.984717" xlink:href="#m01ef1d23cf" y="285.825668"/>
     <use style="fill:#17becf;stroke:#17becf;" x="266.599068" xlink:href="#m01ef1d23cf" y="286.107953"/>
     <use style="fill:#17becf;stroke:#17becf;" x="292.213419" xlink:href="#m01ef1d23cf" y="286.179294"/>
     <use style="fill:#17becf;stroke:#17becf;" x="317.82777" xlink:href="#m01ef1d23cf" y="285.10793"/>
     <use style="fill:#17becf;stroke:#17becf;" x="343.442121" xlink:href="#m01ef1d23cf" y="283.086644"/>
     <use style="fill:#17becf;stroke:#17becf;" x="369.056472" xlink:href="#m01ef1d23cf" y="280.502807"/>
     <use style="fill:#17becf;stroke:#17becf;" x="394.670823" xlink:href="#m01ef1d23cf" y="277.529103"/>
    </g>
   </g>
   <g id="patch_3">
    <path d="M 71.93 302.92 
L 71.93 10.8 
" style="fill:none;stroke:#000000;stroke-linecap:square;stroke-linejoin:miter;stroke-width:0.8;"/>
   </g>
   <g id="patch_4">
    <path d="M 410.039434 302.92 
L 410.039434 10.8 
" style="fill:none;stroke:#000000;stroke-linecap:square;stroke-linejoin:miter;stroke-width:0.8;"/>
   </g>
   <g id="patch_5">
    <path d="M 71.93 302.92 
L 410.039434 302.92 
" style="fill:none;stroke:#000000;stroke-linecap:square;stroke-linejoin:miter;stroke-width:0.8;"/>
   </g>
   <g id="patch_6">
    <path d="M 71.93 10.8 
L 410.039434 10.8 
" style="fill:none;stroke:#000000;stroke-linecap:square;stroke-linejoin:miter;stroke-width:0.8;"/>
   </g>
   <g id="legend_1">
    <g id="patch_7">
     <path d="M 436.744905 302.085 
L 556.724905 302.085 
Q 559.524905 302.085 559.524905 299.285 
L 559.524905 20.6 
Q 559.524905 17.8 556.724905 17.8 
L 436.744905 17.8 
Q 433.944905 17.8 433.944905 20.6 
L 433.944905 299.285 
Q 433.944905 302.085 436.744905 302.085 
z
" style="fill:#ffffff;opacity:0.8;stroke:#cccccc;stroke-linejoin:miter;"/>
    </g>
    <g id="text_16">
     <!-- Mode 4 -->
     <g transform="translate(466.238655 35.5575)scale(0.16 -0.16)">
      <defs>
       <path d="M 5.515625 0 
L 5.515625 5.171875 
L 14.796875 5.171875 
L 14.796875 67.671875 
L 4.984375 67.671875 
L 4.984375 72.90625 
L 26.21875 72.90625 
L 51.8125 21 
L 77.390625 72.90625 
L 97.3125 72.90625 
L 97.3125 67.671875 
L 87.59375 67.671875 
L 87.59375 5.171875 
L 96.921875 5.171875 
L 96.921875 0 
L 68.40625 0 
L 68.40625 5.171875 
L 77.6875 5.171875 
L 77.6875 61.53125 
L 52.6875 10.6875 
L 45.796875 10.6875 
L 20.796875 61.53125 
L 20.796875 5.171875 
L 30.078125 5.171875 
L 30.078125 0 
z
" id="DejaVuSerif-77"/>
      </defs>
      <use xlink:href="#DejaVuSerif-77"/>
      <use x="102.392578" xlink:href="#DejaVuSerif-111"/>
      <use x="162.597656" xlink:href="#DejaVuSerif-100"/>
      <use x="226.611328" xlink:href="#DejaVuSerif-101"/>
      <use x="285.791016" xlink:href="#DejaVuSerif-32"/>
      <use x="317.578125" xlink:href="#DejaVuSerif-52"/>
     </g>
    </g>
    <g id="line2d_24">
     <path d="M 439.544905 56.385 
L 467.544905 56.385 
" style="fill:none;stroke:#1f77b4;stroke-dasharray:5.55,2.4;stroke-dashoffset:0;stroke-width:1.5;"/>
    </g>
    <g id="line2d_25">
     <g>
      <use style="fill:#1f77b4;stroke:#1f77b4;" x="453.544905" xlink:href="#m1ff807f7de" y="56.385"/>
     </g>
    </g>
    <g id="text_17">
     <!-- $\langle \mathrm{S3}|\hat{\mathrm{H}}|\mathrm{T1} \rangle$ -->
     <g transform="translate(478.744905 61.285)scale(0.14 -0.14)">
      <defs>
       <path d="M 8.9375 31.34375 
L 22.703125 75.875 
L 31 75.875 
L 17.234375 31.34375 
L 31 -13.1875 
L 22.703125 -13.1875 
z
" id="DejaVuSans-10216"/>
       <path d="M 53.515625 70.515625 
L 53.515625 60.890625 
Q 47.90625 63.578125 42.921875 64.890625 
Q 37.9375 66.21875 33.296875 66.21875 
Q 25.25 66.21875 20.875 63.09375 
Q 16.5 59.96875 16.5 54.203125 
Q 16.5 49.359375 19.40625 46.890625 
Q 22.3125 44.4375 30.421875 42.921875 
L 36.375 41.703125 
Q 47.40625 39.59375 52.65625 34.296875 
Q 57.90625 29 57.90625 20.125 
Q 57.90625 9.515625 50.796875 4.046875 
Q 43.703125 -1.421875 29.984375 -1.421875 
Q 24.8125 -1.421875 18.96875 -0.25 
Q 13.140625 0.921875 6.890625 3.21875 
L 6.890625 13.375 
Q 12.890625 10.015625 18.65625 8.296875 
Q 24.421875 6.59375 29.984375 6.59375 
Q 38.421875 6.59375 43.015625 9.90625 
Q 47.609375 13.234375 47.609375 19.390625 
Q 47.609375 24.75 44.3125 27.78125 
Q 41.015625 30.8125 33.5 32.328125 
L 27.484375 33.5 
Q 16.453125 35.6875 11.515625 40.375 
Q 6.59375 45.0625 6.59375 53.421875 
Q 6.59375 63.09375 13.40625 68.65625 
Q 20.21875 74.21875 32.171875 74.21875 
Q 37.3125 74.21875 42.625 73.28125 
Q 47.953125 72.359375 53.515625 70.515625 
z
" id="DejaVuSans-83"/>
       <path d="M 40.578125 39.3125 
Q 47.65625 37.796875 51.625 33 
Q 55.609375 28.21875 55.609375 21.1875 
Q 55.609375 10.40625 48.1875 4.484375 
Q 40.765625 -1.421875 27.09375 -1.421875 
Q 22.515625 -1.421875 17.65625 -0.515625 
Q 12.796875 0.390625 7.625 2.203125 
L 7.625 11.71875 
Q 11.71875 9.328125 16.59375 8.109375 
Q 21.484375 6.890625 26.8125 6.890625 
Q 36.078125 6.890625 40.9375 10.546875 
Q 45.796875 14.203125 45.796875 21.1875 
Q 45.796875 27.640625 41.28125 31.265625 
Q 36.765625 34.90625 28.71875 34.90625 
L 20.21875 34.90625 
L 20.21875 43.015625 
L 29.109375 43.015625 
Q 36.375 43.015625 40.234375 45.921875 
Q 44.09375 48.828125 44.09375 54.296875 
Q 44.09375 59.90625 40.109375 62.90625 
Q 36.140625 65.921875 28.71875 65.921875 
Q 24.65625 65.921875 20.015625 65.03125 
Q 15.375 64.15625 9.8125 62.3125 
L 9.8125 71.09375 
Q 15.4375 72.65625 20.34375 73.4375 
Q 25.25 74.21875 29.59375 74.21875 
Q 40.828125 74.21875 47.359375 69.109375 
Q 53.90625 64.015625 53.90625 55.328125 
Q 53.90625 49.265625 50.4375 45.09375 
Q 46.96875 40.921875 40.578125 39.3125 
z
" id="DejaVuSans-51"/>
       <path d="M 21 76.421875 
L 21 -23.578125 
L 12.703125 -23.578125 
L 12.703125 76.421875 
z
" id="DejaVuSans-124"/>
       <path d="M -28.609375 79.984375 
L -21.390625 79.984375 
L -9.421875 61.625 
L -16.21875 61.625 
L -25 73.578125 
L -33.796875 61.625 
L -40.578125 61.625 
z
M -25 56 
z
" id="DejaVuSans-770"/>
       <path d="M 9.8125 72.90625 
L 19.671875 72.90625 
L 19.671875 43.015625 
L 55.515625 43.015625 
L 55.515625 72.90625 
L 65.375 72.90625 
L 65.375 0 
L 55.515625 0 
L 55.515625 34.71875 
L 19.671875 34.71875 
L 19.671875 0 
L 9.8125 0 
z
" id="DejaVuSans-72"/>
       <path d="M -0.296875 72.90625 
L 61.375 72.90625 
L 61.375 64.59375 
L 35.5 64.59375 
L 35.5 0 
L 25.59375 0 
L 25.59375 64.59375 
L -0.296875 64.59375 
z
" id="DejaVuSans-84"/>
       <path d="M 12.40625 8.296875 
L 28.515625 8.296875 
L 28.515625 63.921875 
L 10.984375 60.40625 
L 10.984375 69.390625 
L 28.421875 72.90625 
L 38.28125 72.90625 
L 38.28125 8.296875 
L 54.390625 8.296875 
L 54.390625 0 
L 12.40625 0 
z
" id="DejaVuSans-49"/>
       <path d="M 30.078125 31.34375 
L 16.3125 -13.1875 
L 8.015625 -13.1875 
L 21.78125 31.34375 
L 8.015625 75.875 
L 16.3125 75.875 
z
" id="DejaVuSans-10217"/>
      </defs>
      <use transform="translate(0 0.609375)" xlink:href="#DejaVuSans-10216"/>
      <use transform="translate(39.013672 0.609375)" xlink:href="#DejaVuSans-83"/>
      <use transform="translate(102.490234 0.609375)" xlink:href="#DejaVuSans-51"/>
      <use transform="translate(166.113281 0.609375)" xlink:href="#DejaVuSans-124"/>
      <use transform="translate(272.181641 30.015625)" xlink:href="#DejaVuSans-770"/>
      <use transform="translate(199.804688 0.609375)" xlink:href="#DejaVuSans-72"/>
      <use transform="translate(275 0.609375)" xlink:href="#DejaVuSans-124"/>
      <use transform="translate(308.691406 0.609375)" xlink:href="#DejaVuSans-84"/>
      <use transform="translate(369.775391 0.609375)" xlink:href="#DejaVuSans-49"/>
      <use transform="translate(433.398438 0.609375)" xlink:href="#DejaVuSans-10217"/>
     </g>
    </g>
    <g id="line2d_26">
     <path d="M 439.544905 82.145 
L 467.544905 82.145 
" style="fill:none;stroke:#ff7f0e;stroke-dasharray:5.55,2.4;stroke-dashoffset:0;stroke-width:1.5;"/>
    </g>
    <g id="line2d_27">
     <g>
      <use style="fill:#ff7f0e;stroke:#ff7f0e;" x="453.544905" xlink:href="#m5963338350" y="82.145"/>
     </g>
    </g>
    <g id="text_18">
     <!-- $\langle \mathrm{S3}|\hat{\mathrm{H}}|\mathrm{T10} \rangle$ -->
     <g transform="translate(478.744905 87.045)scale(0.14 -0.14)">
      <defs>
       <path d="M 31.78125 66.40625 
Q 24.171875 66.40625 20.328125 58.90625 
Q 16.5 51.421875 16.5 36.375 
Q 16.5 21.390625 20.328125 13.890625 
Q 24.171875 6.390625 31.78125 6.390625 
Q 39.453125 6.390625 43.28125 13.890625 
Q 47.125 21.390625 47.125 36.375 
Q 47.125 51.421875 43.28125 58.90625 
Q 39.453125 66.40625 31.78125 66.40625 
z
M 31.78125 74.21875 
Q 44.046875 74.21875 50.515625 64.515625 
Q 56.984375 54.828125 56.984375 36.375 
Q 56.984375 17.96875 50.515625 8.265625 
Q 44.046875 -1.421875 31.78125 -1.421875 
Q 19.53125 -1.421875 13.0625 8.265625 
Q 6.59375 17.96875 6.59375 36.375 
Q 6.59375 54.828125 13.0625 64.515625 
Q 19.53125 74.21875 31.78125 74.21875 
z
" id="DejaVuSans-48"/>
      </defs>
      <use transform="translate(0 0.609375)" xlink:href="#DejaVuSans-10216"/>
      <use transform="translate(39.013672 0.609375)" xlink:href="#DejaVuSans-83"/>
      <use transform="translate(102.490234 0.609375)" xlink:href="#DejaVuSans-51"/>
      <use transform="translate(166.113281 0.609375)" xlink:href="#DejaVuSans-124"/>
      <use transform="translate(272.181641 30.015625)" xlink:href="#DejaVuSans-770"/>
      <use transform="translate(199.804688 0.609375)" xlink:href="#DejaVuSans-72"/>
      <use transform="translate(275 0.609375)" xlink:href="#DejaVuSans-124"/>
      <use transform="translate(308.691406 0.609375)" xlink:href="#DejaVuSans-84"/>
      <use transform="translate(369.775391 0.609375)" xlink:href="#DejaVuSans-49"/>
      <use transform="translate(433.398438 0.609375)" xlink:href="#DejaVuSans-48"/>
      <use transform="translate(497.021484 0.609375)" xlink:href="#DejaVuSans-10217"/>
     </g>
    </g>
    <g id="line2d_28">
     <path d="M 439.544905 107.905 
L 467.544905 107.905 
" style="fill:none;stroke:#2ca02c;stroke-dasharray:5.55,2.4;stroke-dashoffset:0;stroke-width:1.5;"/>
    </g>
    <g id="line2d_29">
     <g>
      <use style="fill:#2ca02c;stroke:#2ca02c;" x="453.544905" xlink:href="#ma0929fb354" y="107.905"/>
     </g>
    </g>
    <g id="text_19">
     <!-- $\langle \mathrm{S3}|\hat{\mathrm{H}}|\mathrm{T2} \rangle$ -->
     <g transform="translate(478.744905 112.805)scale(0.14 -0.14)">
      <defs>
       <path d="M 19.1875 8.296875 
L 53.609375 8.296875 
L 53.609375 0 
L 7.328125 0 
L 7.328125 8.296875 
Q 12.9375 14.109375 22.625 23.890625 
Q 32.328125 33.6875 34.8125 36.53125 
Q 39.546875 41.84375 41.421875 45.53125 
Q 43.3125 49.21875 43.3125 52.78125 
Q 43.3125 58.59375 39.234375 62.25 
Q 35.15625 65.921875 28.609375 65.921875 
Q 23.96875 65.921875 18.8125 64.3125 
Q 13.671875 62.703125 7.8125 59.421875 
L 7.8125 69.390625 
Q 13.765625 71.78125 18.9375 73 
Q 24.125 74.21875 28.421875 74.21875 
Q 39.75 74.21875 46.484375 68.546875 
Q 53.21875 62.890625 53.21875 53.421875 
Q 53.21875 48.921875 51.53125 44.890625 
Q 49.859375 40.875 45.40625 35.40625 
Q 44.1875 33.984375 37.640625 27.21875 
Q 31.109375 20.453125 19.1875 8.296875 
z
" id="DejaVuSans-50"/>
      </defs>
      <use transform="translate(0 0.609375)" xlink:href="#DejaVuSans-10216"/>
      <use transform="translate(39.013672 0.609375)" xlink:href="#DejaVuSans-83"/>
      <use transform="translate(102.490234 0.609375)" xlink:href="#DejaVuSans-51"/>
      <use transform="translate(166.113281 0.609375)" xlink:href="#DejaVuSans-124"/>
      <use transform="translate(272.181641 30.015625)" xlink:href="#DejaVuSans-770"/>
      <use transform="translate(199.804688 0.609375)" xlink:href="#DejaVuSans-72"/>
      <use transform="translate(275 0.609375)" xlink:href="#DejaVuSans-124"/>
      <use transform="translate(308.691406 0.609375)" xlink:href="#DejaVuSans-84"/>
      <use transform="translate(369.775391 0.609375)" xlink:href="#DejaVuSans-50"/>
      <use transform="translate(433.398438 0.609375)" xlink:href="#DejaVuSans-10217"/>
     </g>
    </g>
    <g id="line2d_30">
     <path d="M 439.544905 133.665 
L 467.544905 133.665 
" style="fill:none;stroke:#d62728;stroke-dasharray:5.55,2.4;stroke-dashoffset:0;stroke-width:1.5;"/>
    </g>
    <g id="line2d_31">
     <g>
      <use style="fill:#d62728;stroke:#d62728;" x="453.544905" xlink:href="#m87723fb433" y="133.665"/>
     </g>
    </g>
    <g id="text_20">
     <!-- $\langle \mathrm{S3}|\hat{\mathrm{H}}|\mathrm{T3} \rangle$ -->
     <g transform="translate(478.744905 138.565)scale(0.14 -0.14)">
      <use transform="translate(0 0.609375)" xlink:href="#DejaVuSans-10216"/>
      <use transform="translate(39.013672 0.609375)" xlink:href="#DejaVuSans-83"/>
      <use transform="translate(102.490234 0.609375)" xlink:href="#DejaVuSans-51"/>
      <use transform="translate(166.113281 0.609375)" xlink:href="#DejaVuSans-124"/>
      <use transform="translate(272.181641 30.015625)" xlink:href="#DejaVuSans-770"/>
      <use transform="translate(199.804688 0.609375)" xlink:href="#DejaVuSans-72"/>
      <use transform="translate(275 0.609375)" xlink:href="#DejaVuSans-124"/>
      <use transform="translate(308.691406 0.609375)" xlink:href="#DejaVuSans-84"/>
      <use transform="translate(369.775391 0.609375)" xlink:href="#DejaVuSans-51"/>
      <use transform="translate(433.398438 0.609375)" xlink:href="#DejaVuSans-10217"/>
     </g>
    </g>
    <g id="line2d_32">
     <path d="M 439.544905 159.425 
L 467.544905 159.425 
" style="fill:none;stroke:#9467bd;stroke-dasharray:5.55,2.4;stroke-dashoffset:0;stroke-width:1.5;"/>
    </g>
    <g id="line2d_33">
     <g>
      <use style="fill:#9467bd;stroke:#9467bd;" x="453.544905" xlink:href="#m9088c1a61a" y="159.425"/>
     </g>
    </g>
    <g id="text_21">
     <!-- $\langle \mathrm{S3}|\hat{\mathrm{H}}|\mathrm{T4} \rangle$ -->
     <g transform="translate(478.744905 164.325)scale(0.14 -0.14)">
      <defs>
       <path d="M 37.796875 64.3125 
L 12.890625 25.390625 
L 37.796875 25.390625 
z
M 35.203125 72.90625 
L 47.609375 72.90625 
L 47.609375 25.390625 
L 58.015625 25.390625 
L 58.015625 17.1875 
L 47.609375 17.1875 
L 47.609375 0 
L 37.796875 0 
L 37.796875 17.1875 
L 4.890625 17.1875 
L 4.890625 26.703125 
z
" id="DejaVuSans-52"/>
      </defs>
      <use transform="translate(0 0.609375)" xlink:href="#DejaVuSans-10216"/>
      <use transform="translate(39.013672 0.609375)" xlink:href="#DejaVuSans-83"/>
      <use transform="translate(102.490234 0.609375)" xlink:href="#DejaVuSans-51"/>
      <use transform="translate(166.113281 0.609375)" xlink:href="#DejaVuSans-124"/>
      <use transform="translate(272.181641 30.015625)" xlink:href="#DejaVuSans-770"/>
      <use transform="translate(199.804688 0.609375)" xlink:href="#DejaVuSans-72"/>
      <use transform="translate(275 0.609375)" xlink:href="#DejaVuSans-124"/>
      <use transform="translate(308.691406 0.609375)" xlink:href="#DejaVuSans-84"/>
      <use transform="translate(369.775391 0.609375)" xlink:href="#DejaVuSans-52"/>
      <use transform="translate(433.398438 0.609375)" xlink:href="#DejaVuSans-10217"/>
     </g>
    </g>
    <g id="line2d_34">
     <path d="M 439.544905 185.185 
L 467.544905 185.185 
" style="fill:none;stroke:#8c564b;stroke-dasharray:5.55,2.4;stroke-dashoffset:0;stroke-width:1.5;"/>
    </g>
    <g id="line2d_35">
     <g>
      <use style="fill:#8c564b;stroke:#8c564b;" x="453.544905" xlink:href="#m3596ec601e" y="185.185"/>
     </g>
    </g>
    <g id="text_22">
     <!-- $\langle \mathrm{S3}|\hat{\mathrm{H}}|\mathrm{T5} \rangle$ -->
     <g transform="translate(478.744905 190.085)scale(0.14 -0.14)">
      <defs>
       <path d="M 10.796875 72.90625 
L 49.515625 72.90625 
L 49.515625 64.59375 
L 19.828125 64.59375 
L 19.828125 46.734375 
Q 21.96875 47.46875 24.109375 47.828125 
Q 26.265625 48.1875 28.421875 48.1875 
Q 40.625 48.1875 47.75 41.5 
Q 54.890625 34.8125 54.890625 23.390625 
Q 54.890625 11.625 47.5625 5.09375 
Q 40.234375 -1.421875 26.90625 -1.421875 
Q 22.3125 -1.421875 17.546875 -0.640625 
Q 12.796875 0.140625 7.71875 1.703125 
L 7.71875 11.625 
Q 12.109375 9.234375 16.796875 8.0625 
Q 21.484375 6.890625 26.703125 6.890625 
Q 35.15625 6.890625 40.078125 11.328125 
Q 45.015625 15.765625 45.015625 23.390625 
Q 45.015625 31 40.078125 35.4375 
Q 35.15625 39.890625 26.703125 39.890625 
Q 22.75 39.890625 18.8125 39.015625 
Q 14.890625 38.140625 10.796875 36.28125 
z
" id="DejaVuSans-53"/>
      </defs>
      <use transform="translate(0 0.609375)" xlink:href="#DejaVuSans-10216"/>
      <use transform="translate(39.013672 0.609375)" xlink:href="#DejaVuSans-83"/>
      <use transform="translate(102.490234 0.609375)" xlink:href="#DejaVuSans-51"/>
      <use transform="translate(166.113281 0.609375)" xlink:href="#DejaVuSans-124"/>
      <use transform="translate(272.181641 30.015625)" xlink:href="#DejaVuSans-770"/>
      <use transform="translate(199.804688 0.609375)" xlink:href="#DejaVuSans-72"/>
      <use transform="translate(275 0.609375)" xlink:href="#DejaVuSans-124"/>
      <use transform="translate(308.691406 0.609375)" xlink:href="#DejaVuSans-84"/>
      <use transform="translate(369.775391 0.609375)" xlink:href="#DejaVuSans-53"/>
      <use transform="translate(433.398438 0.609375)" xlink:href="#DejaVuSans-10217"/>
     </g>
    </g>
    <g id="line2d_36">
     <path d="M 439.544905 210.945 
L 467.544905 210.945 
" style="fill:none;stroke:#e377c2;stroke-dasharray:5.55,2.4;stroke-dashoffset:0;stroke-width:1.5;"/>
    </g>
    <g id="line2d_37">
     <g>
      <use style="fill:#e377c2;stroke:#e377c2;" x="453.544905" xlink:href="#m7035f91247" y="210.945"/>
     </g>
    </g>
    <g id="text_23">
     <!-- $\langle \mathrm{S3}|\hat{\mathrm{H}}|\mathrm{T6} \rangle$ -->
     <g transform="translate(478.744905 215.845)scale(0.14 -0.14)">
      <defs>
       <path d="M 33.015625 40.375 
Q 26.375 40.375 22.484375 35.828125 
Q 18.609375 31.296875 18.609375 23.390625 
Q 18.609375 15.53125 22.484375 10.953125 
Q 26.375 6.390625 33.015625 6.390625 
Q 39.65625 6.390625 43.53125 10.953125 
Q 47.40625 15.53125 47.40625 23.390625 
Q 47.40625 31.296875 43.53125 35.828125 
Q 39.65625 40.375 33.015625 40.375 
z
M 52.59375 71.296875 
L 52.59375 62.3125 
Q 48.875 64.0625 45.09375 64.984375 
Q 41.3125 65.921875 37.59375 65.921875 
Q 27.828125 65.921875 22.671875 59.328125 
Q 17.53125 52.734375 16.796875 39.40625 
Q 19.671875 43.65625 24.015625 45.921875 
Q 28.375 48.1875 33.59375 48.1875 
Q 44.578125 48.1875 50.953125 41.515625 
Q 57.328125 34.859375 57.328125 23.390625 
Q 57.328125 12.15625 50.6875 5.359375 
Q 44.046875 -1.421875 33.015625 -1.421875 
Q 20.359375 -1.421875 13.671875 8.265625 
Q 6.984375 17.96875 6.984375 36.375 
Q 6.984375 53.65625 15.1875 63.9375 
Q 23.390625 74.21875 37.203125 74.21875 
Q 40.921875 74.21875 44.703125 73.484375 
Q 48.484375 72.75 52.59375 71.296875 
z
" id="DejaVuSans-54"/>
      </defs>
      <use transform="translate(0 0.609375)" xlink:href="#DejaVuSans-10216"/>
      <use transform="translate(39.013672 0.609375)" xlink:href="#DejaVuSans-83"/>
      <use transform="translate(102.490234 0.609375)" xlink:href="#DejaVuSans-51"/>
      <use transform="translate(166.113281 0.609375)" xlink:href="#DejaVuSans-124"/>
      <use transform="translate(272.181641 30.015625)" xlink:href="#DejaVuSans-770"/>
      <use transform="translate(199.804688 0.609375)" xlink:href="#DejaVuSans-72"/>
      <use transform="translate(275 0.609375)" xlink:href="#DejaVuSans-124"/>
      <use transform="translate(308.691406 0.609375)" xlink:href="#DejaVuSans-84"/>
      <use transform="translate(369.775391 0.609375)" xlink:href="#DejaVuSans-54"/>
      <use transform="translate(433.398438 0.609375)" xlink:href="#DejaVuSans-10217"/>
     </g>
    </g>
    <g id="line2d_38">
     <path d="M 439.544905 236.705 
L 467.544905 236.705 
" style="fill:none;stroke:#7f7f7f;stroke-dasharray:5.55,2.4;stroke-dashoffset:0;stroke-width:1.5;"/>
    </g>
    <g id="line2d_39">
     <g>
      <use style="fill:#7f7f7f;stroke:#7f7f7f;" x="453.544905" xlink:href="#m93b411e1bd" y="236.705"/>
     </g>
    </g>
    <g id="text_24">
     <!-- $\langle \mathrm{S3}|\hat{\mathrm{H}}|\mathrm{T7} \rangle$ -->
     <g transform="translate(478.744905 241.605)scale(0.14 -0.14)">
      <defs>
       <path d="M 8.203125 72.90625 
L 55.078125 72.90625 
L 55.078125 68.703125 
L 28.609375 0 
L 18.3125 0 
L 43.21875 64.59375 
L 8.203125 64.59375 
z
" id="DejaVuSans-55"/>
      </defs>
      <use transform="translate(0 0.609375)" xlink:href="#DejaVuSans-10216"/>
      <use transform="translate(39.013672 0.609375)" xlink:href="#DejaVuSans-83"/>
      <use transform="translate(102.490234 0.609375)" xlink:href="#DejaVuSans-51"/>
      <use transform="translate(166.113281 0.609375)" xlink:href="#DejaVuSans-124"/>
      <use transform="translate(272.181641 30.015625)" xlink:href="#DejaVuSans-770"/>
      <use transform="translate(199.804688 0.609375)" xlink:href="#DejaVuSans-72"/>
      <use transform="translate(275 0.609375)" xlink:href="#DejaVuSans-124"/>
      <use transform="translate(308.691406 0.609375)" xlink:href="#DejaVuSans-84"/>
      <use transform="translate(369.775391 0.609375)" xlink:href="#DejaVuSans-55"/>
      <use transform="translate(433.398438 0.609375)" xlink:href="#DejaVuSans-10217"/>
     </g>
    </g>
    <g id="line2d_40">
     <path d="M 439.544905 262.465 
L 467.544905 262.465 
" style="fill:none;stroke:#bcbd22;stroke-dasharray:5.55,2.4;stroke-dashoffset:0;stroke-width:1.5;"/>
    </g>
    <g id="line2d_41">
     <g>
      <use style="fill:#bcbd22;stroke:#bcbd22;" x="453.544905" xlink:href="#m56f5e7f0db" y="262.465"/>
     </g>
    </g>
    <g id="text_25">
     <!-- $\langle \mathrm{S3}|\hat{\mathrm{H}}|\mathrm{T8} \rangle$ -->
     <g transform="translate(478.744905 267.365)scale(0.14 -0.14)">
      <defs>
       <path d="M 31.78125 34.625 
Q 24.75 34.625 20.71875 30.859375 
Q 16.703125 27.09375 16.703125 20.515625 
Q 16.703125 13.921875 20.71875 10.15625 
Q 24.75 6.390625 31.78125 6.390625 
Q 38.8125 6.390625 42.859375 10.171875 
Q 46.921875 13.96875 46.921875 20.515625 
Q 46.921875 27.09375 42.890625 30.859375 
Q 38.875 34.625 31.78125 34.625 
z
M 21.921875 38.8125 
Q 15.578125 40.375 12.03125 44.71875 
Q 8.5 49.078125 8.5 55.328125 
Q 8.5 64.0625 14.71875 69.140625 
Q 20.953125 74.21875 31.78125 74.21875 
Q 42.671875 74.21875 48.875 69.140625 
Q 55.078125 64.0625 55.078125 55.328125 
Q 55.078125 49.078125 51.53125 44.71875 
Q 48 40.375 41.703125 38.8125 
Q 48.828125 37.15625 52.796875 32.3125 
Q 56.78125 27.484375 56.78125 20.515625 
Q 56.78125 9.90625 50.3125 4.234375 
Q 43.84375 -1.421875 31.78125 -1.421875 
Q 19.734375 -1.421875 13.25 4.234375 
Q 6.78125 9.90625 6.78125 20.515625 
Q 6.78125 27.484375 10.78125 32.3125 
Q 14.796875 37.15625 21.921875 38.8125 
z
M 18.3125 54.390625 
Q 18.3125 48.734375 21.84375 45.5625 
Q 25.390625 42.390625 31.78125 42.390625 
Q 38.140625 42.390625 41.71875 45.5625 
Q 45.3125 48.734375 45.3125 54.390625 
Q 45.3125 60.0625 41.71875 63.234375 
Q 38.140625 66.40625 31.78125 66.40625 
Q 25.390625 66.40625 21.84375 63.234375 
Q 18.3125 60.0625 18.3125 54.390625 
z
" id="DejaVuSans-56"/>
      </defs>
      <use transform="translate(0 0.609375)" xlink:href="#DejaVuSans-10216"/>
      <use transform="translate(39.013672 0.609375)" xlink:href="#DejaVuSans-83"/>
      <use transform="translate(102.490234 0.609375)" xlink:href="#DejaVuSans-51"/>
      <use transform="translate(166.113281 0.609375)" xlink:href="#DejaVuSans-124"/>
      <use transform="translate(272.181641 30.015625)" xlink:href="#DejaVuSans-770"/>
      <use transform="translate(199.804688 0.609375)" xlink:href="#DejaVuSans-72"/>
      <use transform="translate(275 0.609375)" xlink:href="#DejaVuSans-124"/>
      <use transform="translate(308.691406 0.609375)" xlink:href="#DejaVuSans-84"/>
      <use transform="translate(369.775391 0.609375)" xlink:href="#DejaVuSans-56"/>
      <use transform="translate(433.398438 0.609375)" xlink:href="#DejaVuSans-10217"/>
     </g>
    </g>
    <g id="line2d_42">
     <path d="M 439.544905 288.225 
L 467.544905 288.225 
" style="fill:none;stroke:#17becf;stroke-dasharray:5.55,2.4;stroke-dashoffset:0;stroke-width:1.5;"/>
    </g>
    <g id="line2d_43">
     <g>
      <use style="fill:#17becf;stroke:#17becf;" x="453.544905" xlink:href="#m01ef1d23cf" y="288.225"/>
     </g>
    </g>
    <g id="text_26">
     <!-- $\langle \mathrm{S3}|\hat{\mathrm{H}}|\mathrm{T9} \rangle$ -->
     <g transform="translate(478.744905 293.125)scale(0.14 -0.14)">
      <defs>
       <path d="M 10.984375 1.515625 
L 10.984375 10.5 
Q 14.703125 8.734375 18.5 7.8125 
Q 22.3125 6.890625 25.984375 6.890625 
Q 35.75 6.890625 40.890625 13.453125 
Q 46.046875 20.015625 46.78125 33.40625 
Q 43.953125 29.203125 39.59375 26.953125 
Q 35.25 24.703125 29.984375 24.703125 
Q 19.046875 24.703125 12.671875 31.3125 
Q 6.296875 37.9375 6.296875 49.421875 
Q 6.296875 60.640625 12.9375 67.421875 
Q 19.578125 74.21875 30.609375 74.21875 
Q 43.265625 74.21875 49.921875 64.515625 
Q 56.59375 54.828125 56.59375 36.375 
Q 56.59375 19.140625 48.40625 8.859375 
Q 40.234375 -1.421875 26.421875 -1.421875 
Q 22.703125 -1.421875 18.890625 -0.6875 
Q 15.09375 0.046875 10.984375 1.515625 
z
M 30.609375 32.421875 
Q 37.25 32.421875 41.125 36.953125 
Q 45.015625 41.5 45.015625 49.421875 
Q 45.015625 57.28125 41.125 61.84375 
Q 37.25 66.40625 30.609375 66.40625 
Q 23.96875 66.40625 20.09375 61.84375 
Q 16.21875 57.28125 16.21875 49.421875 
Q 16.21875 41.5 20.09375 36.953125 
Q 23.96875 32.421875 30.609375 32.421875 
z
" id="DejaVuSans-57"/>
      </defs>
      <use transform="translate(0 0.609375)" xlink:href="#DejaVuSans-10216"/>
      <use transform="translate(39.013672 0.609375)" xlink:href="#DejaVuSans-83"/>
      <use transform="translate(102.490234 0.609375)" xlink:href="#DejaVuSans-51"/>
      <use transform="translate(166.113281 0.609375)" xlink:href="#DejaVuSans-124"/>
      <use transform="translate(272.181641 30.015625)" xlink:href="#DejaVuSans-770"/>
      <use transform="translate(199.804688 0.609375)" xlink:href="#DejaVuSans-72"/>
      <use transform="translate(275 0.609375)" xlink:href="#DejaVuSans-124"/>
      <use transform="translate(308.691406 0.609375)" xlink:href="#DejaVuSans-84"/>
      <use transform="translate(369.775391 0.609375)" xlink:href="#DejaVuSans-57"/>
      <use transform="translate(433.398438 0.609375)" xlink:href="#DejaVuSans-10217"/>
     </g>
    </g>
   </g>
  </g>
 </g>
 <defs>
  <clipPath id="p60ebbce33e">
   <rect height="292.12" width="338.109434" x="71.93" y="10.8"/>
  </clipPath>
 </defs>
</svg>
